<svg id="Group_3551" data-name="Group 3551" xmlns="http://www.w3.org/2000/svg" width="53.451" height="40.68" viewBox="0 0 53.451 40.68">
  <defs>
    <style>
      .cls-1 {
        fill: #f2f2f2;
      }

      .cls-2 {
        fill: #fff;
      }

      .cls-3 {
        fill: #0c1e31;
      }
    </style>
  </defs>
  <ellipse id="Ellipse_598" data-name="Ellipse 598" class="cls-1" cx="1.492" cy="1.33" rx="1.492" ry="1.33" transform="translate(18.917 24.163)"/>
  <g id="Group_3550" data-name="Group 3550" transform="translate(0 24.975)">
    <path id="Path_50454" data-name="Path 50454" class="cls-2" d="M174.358-638.289v11.5h2.776v-12.142H175A.646.646,0,0,0,174.358-638.289Z" transform="translate(-160.476 638.935)"/>
    <path id="Path_50455" data-name="Path 50455" class="cls-2" d="M238.593-597.884v8.263h2.776v-8.909h-2.131A.646.646,0,0,0,238.593-597.884Z" transform="translate(-219.573 601.762)"/>
    <path id="Path_50456" data-name="Path 50456" class="cls-2" d="M306.08-601.12a3.826,3.826,0,0,0-2.549,1.014v-.807H301.4a.646.646,0,0,0-.646.646v11.827h2.776v-3.923a2.832,2.832,0,0,0,1.761.546,4.78,4.78,0,0,0,4.579-5.056A3.962,3.962,0,0,0,306.08-601.12Zm-.912,8.35a2.6,2.6,0,0,1-1.637-1.077v-4.777a3.144,3.144,0,0,1,1.8-1.045c.953,0,1.844,1.305,1.844,3.211S306.308-592.77,305.168-592.77Z" transform="translate(-276.762 604.145)"/>
    <path id="Path_50457" data-name="Path 50457" class="cls-2" d="M433.347-601.12a6.7,6.7,0,0,0-3.253.518l.29.622a7.677,7.677,0,0,1,2.4-.331c1.658,0,1.823.891,1.823,1.989v.512a6.809,6.809,0,0,0-1.885-.264c-1.264,0-3.5.5-3.5,3.087a3,3,0,0,0,3.294,3.17,4.287,4.287,0,0,0,2.093-.726v.54h2.777v-6.319C437.388-600.188,435.792-601.12,433.347-601.12ZM433.182-593a1.751,1.751,0,0,1-1.886-1.948A2.258,2.258,0,0,1,433.6-597a1.5,1.5,0,0,1,1.015.324v3.09A2.2,2.2,0,0,1,433.182-593Z" transform="translate(-394.954 604.145)"/>
    <path id="Path_50458" data-name="Path 50458" class="cls-2" d="M552.548-601.129h-1.863l-2.5,5.693-.069-.134-2.85-5.559h-2.844l4.346,8.481.1.2-.455,1.036c-.7,1.392-2.711,1.3-2.711,1.3v1.166a9.232,9.232,0,0,0,1.492,0,3.322,3.322,0,0,0,2.572-1.838h0l1.328-2.874h0Z" transform="translate(-499.097 604.154)"/>
    <path id="Path_50459" data-name="Path 50459" class="cls-2" d="M7.847-638.925H6.669l-.957,1.992L.828-626.784H2.7l.967-2.01H9.488l.933,2.01h3.062l-5.292-11.4Zm1.246,9.281H4.08l2.551-5.3Z" transform="translate(-0.828 638.926)"/>
  </g>
  <g id="Group_3552" data-name="Group 3552" transform="translate(15.92)">
    <path id="Path_50460" data-name="Path 50460" class="cls-2" d="M-288.92-685.192v13.418a3.059,3.059,0,0,1-3.059,3.027h-13.389a3.058,3.058,0,0,1-3.059-3.059v-13.387a3.059,3.059,0,0,1,3.059-3.059h13.389A3.059,3.059,0,0,1-288.92-685.192Z" transform="translate(308.427 688.251)"/>
    <path id="Path_50461" data-name="Path 50461" class="cls-3" d="M-278.511-643.482a29.872,29.872,0,0,0,1.667-3.956h-3.869V-648.8h4.768v-.83h-4.768v-2.193h-2.22v2.193H-287.7v.83h4.768v1.363h-4.01v.729h7.749a17.151,17.151,0,0,1-1.15,2.627,20.121,20.121,0,0,0-5.536-1.09c-3.692,0-4.511,1.855-4.336,3.551.141,1.354,1.148,3.33,4.225,3.33a8.115,8.115,0,0,0,6.475-3.529c2.663,1.226,5.475,2.737,7.476,3.851v-3.218C-274.155-641.912-276.381-642.758-278.511-643.482Zm-7.928,4.045c-2.6,0-3-1.466-3.047-2.34-.043-.765.474-2.2,3.41-2.2a14.774,14.774,0,0,1,4.768,1.369C-282.407-641.167-284.168-639.437-286.439-639.437Z" transform="translate(291.546 654.446)"/>
  </g>
</svg>
