<svg id="Group_3558" data-name="Group 3558" xmlns="http://www.w3.org/2000/svg" width="65.482" height="11.557" viewBox="0 0 65.482 11.557">
  <defs>
    <style>
      .cls-1 {
        fill: #fff;
      }
    </style>
  </defs>
  <g id="Group_3558-2" data-name="Group 3558">
    <path id="Path_50480" data-name="Path 50480" class="cls-1" d="M-165.179-752.409a.851.851,0,0,1,.128-.019h4.346c.034,0,.069,0,.112.006v.2c-.185,0-.372,0-.559,0a1,1,0,0,0-.934.715,1.014,1.014,0,0,0-.041.284q0,2.088,0,4.175c0,.03,0,.059,0,.1h5.429v-.14q0-2.068,0-4.136a.98.98,0,0,0-.959-.995c-.187-.007-.375,0-.571,0v-.2h4.565v.2c-.171,0-.348-.006-.525,0a.97.97,0,0,0-.9.554,1.109,1.109,0,0,0-.1.467q-.009,4.372,0,8.745a.979.979,0,0,0,1.023,1.012c.166,0,.332,0,.507,0v.2h-4.565v-.2c.177,0,.351,0,.525,0a.981.981,0,0,0,.986-.762.669.669,0,0,0,.018-.156q0-1.963,0-3.926c0-.021,0-.043,0-.075h-5.425c0,.1,0,.195,0,.289q0,1.8,0,3.6a.987.987,0,0,0,1.03,1.032h.5v.191a.779.779,0,0,1-.095.011H-165.1c-.026,0-.052,0-.079,0v-.184c.218-.007.437-.008.654-.023a.967.967,0,0,0,.894-.96q0-4.418,0-8.836a.923.923,0,0,0-.677-.91,5.641,5.641,0,0,0-.871-.066Z" transform="translate(165.179 752.593)"/>
    <path id="Path_50481" data-name="Path 50481" class="cls-1" d="M306.611-758.675c.166.032.334.058.5.1a5.052,5.052,0,0,1,1.205.5,1.122,1.122,0,0,0,.427.151.608.608,0,0,0,.731-.56c.018-.117.065-.151.183-.114v3.649l-.154.007c-.018-.1-.035-.189-.053-.281a4.17,4.17,0,0,0-.84-1.967,2.227,2.227,0,0,0-1.966-.786,3.154,3.154,0,0,0-1.034.268,1.487,1.487,0,0,0-.534,2.279,3.2,3.2,0,0,0,.593.55c.873.605,1.762,1.188,2.639,1.788a7.227,7.227,0,0,1,1.275,1.048A2.57,2.57,0,0,1,310.3-750a2.948,2.948,0,0,1-1.5,2.35,3.528,3.528,0,0,1-3.07.253c-.378-.131-.736-.319-1.11-.465a1.586,1.586,0,0,0-.5-.118.62.62,0,0,0-.626.429,3.4,3.4,0,0,0-.1.347h-.155v-3.861h.133c.1.351.177.7.309,1.033a3.39,3.39,0,0,0,1.239,1.64,2.829,2.829,0,0,0,2.431.4,2.008,2.008,0,0,0,1.227-2.707,1.816,1.816,0,0,0-.684-.779c-.763-.511-1.539-1-2.294-1.524-.482-.332-.947-.692-1.4-1.061a2.259,2.259,0,0,1-.817-1.208,2.532,2.532,0,0,1,.736-2.564,3.025,3.025,0,0,1,1.872-.824.446.446,0,0,0,.073-.02Z" transform="translate(-290.93 758.675)"/>
    <path id="Path_50482" data-name="Path 50482" class="cls-1" d="M980.471-739.564c-.229-.027-.46-.043-.687-.081a5.525,5.525,0,0,1-3.618-2.192,5.045,5.045,0,0,1-.854-2.081,6.856,6.856,0,0,1,.386-3.961,4.778,4.778,0,0,1,1.777-2.092,5.058,5.058,0,0,1,2.414-.907,5.209,5.209,0,0,1,3.242.609,1.481,1.481,0,0,0,.535.193.6.6,0,0,0,.67-.537c.008-.047.016-.094.025-.146.033,0,.062-.008.092-.008s.051,0,.091.008q.08,1.892.16,3.772c-.217.043-.218.043-.248-.145a3.3,3.3,0,0,0-.7-1.671,3.647,3.647,0,0,0-2.91-1.4,3.582,3.582,0,0,0-3.4,2.418,7.126,7.126,0,0,0-.47,3.034,5.1,5.1,0,0,0,.736,2.473,3.817,3.817,0,0,0,2.719,1.789,4.348,4.348,0,0,0,4.3-1.758l.089-.112.236.153a6.089,6.089,0,0,1-3.1,2.434,8.687,8.687,0,0,1-.922.184l-.126.025Z" transform="translate(-945.223 751.12)"/>
    <path id="Path_50483" data-name="Path 50483" class="cls-1" d="M595.764-738.866v-.205c.213,0,.422,0,.63,0a.913.913,0,0,0,.881-.639.812.812,0,0,0,.037-.244q0-4.464,0-8.928a.906.906,0,0,0-.822-.884c-.192-.013-.385-.008-.577-.01h-.147v-.2c.04,0,.082-.006.123-.006,1.466,0,2.932-.008,4.4.013a5.2,5.2,0,0,1,2.394.541,2.85,2.85,0,0,1,1.34,1.351,2.667,2.667,0,0,1-.534,2.869,2.592,2.592,0,0,1-1.063.635c.066.028.107.046.148.062a3.773,3.773,0,0,1,1.412.88,2.547,2.547,0,0,1,.694,2.243,2.718,2.718,0,0,1-2.008,2.257,5.267,5.267,0,0,1-1.8.273c-1.667-.008-3.335,0-5-.005Zm3.043-5.407v.157c0,1.5,0,2.992,0,4.489,0,.119.045.156.147.182a5.057,5.057,0,0,0,1.6.154,2.962,2.962,0,0,0,1.369-.4,2.429,2.429,0,0,0,1.108-2.576,2.392,2.392,0,0,0-1.851-1.943,5.623,5.623,0,0,0-1.565-.119C599.344-744.323,599.08-744.294,598.807-744.273Zm0-.616c.054.012.1.026.146.033a6.451,6.451,0,0,0,1.726.019,2.061,2.061,0,0,0,.91-.266,2.345,2.345,0,0,0,1.191-1.994,2.1,2.1,0,0,0-1.178-2.039,3.787,3.787,0,0,0-2.72-.215c-.092.022-.074.082-.074.14q0,2.106,0,4.213Z" transform="translate(-575.775 750.214)"/>
    <path id="Path_50484" data-name="Path 50484" class="cls-1" d="M1693.979-751.4H1705l-5.509,5.509Z" transform="translate(-1645.141 751.592)"/>
    <path id="Path_50485" data-name="Path 50485" class="cls-1" d="M1485.424-738.565l-5.527-5.527,5.527-5.527Z" transform="translate(-1436.683 749.857)"/>
    <path id="Path_50486" data-name="Path 50486" class="cls-1" d="M2117.592-737.427V-748.46l5.517,5.517Z" transform="translate(-2057.627 748.728)"/>
    <path id="Path_50487" data-name="Path 50487" class="cls-1" d="M1700.787-536.837l5.505,5.505h-11.01Z" transform="translate(-1646.41 542.664)"/>
  </g>
</svg>
