<svg id="Group_3557" data-name="Group 3557" xmlns="http://www.w3.org/2000/svg" width="71.562" height="17.338" viewBox="0 0 71.562 17.338">
  <defs>
    <style>
      .cls-1 {
        fill: #fefefe;
      }

      .cls-1, .cls-2, .cls-3 {
        fill-rule: evenodd;
      }

      .cls-2 {
        fill: #aeaeae;
      }

      .cls-3 {
        fill: #c7c7c7;
      }
    </style>
  </defs>
  <path id="Path_50475" data-name="Path 50475" class="cls-1" d="M173.923,386.87h4.891c2.625,0,3.614,1.329,3.461,3.285-.252,3.224-2.2,5.007-4.787,5.007h-1.305c-.354,0-.593.234-.689.871l-.56,3.7c-.036.24-.163.381-.352.4h-3.067c-.289,0-.391-.221-.316-.7l1.873-11.857A.748.748,0,0,1,173.923,386.87Z" transform="translate(-167.679 -382.789)"/>
  <path id="Path_50476" data-name="Path 50476" class="cls-2" d="M316.406,385.134c1.65,0,3.172.895,2.964,3.126-.247,2.645-1.672,4.118-3.914,4.124H313.5c-.282,0-.418.229-.492.7l-.377,2.407c-.057.364-.243.543-.519.543H310.29c-.291,0-.392-.186-.327-.6l1.506-9.649c.074-.474.256-.651.577-.651Zm-2.967,5.165h1.484c.927-.035,1.544-.677,1.606-1.836a1.12,1.12,0,0,0-1.215-1.224l-1.4.006-.479,3.054Zm10.882,5c.166-.151.336-.23.311-.043l-.059.447c-.031.233.062.358.279.358h1.618c.272,0,.405-.11.472-.532l1-6.259c.05-.314-.026-.469-.265-.469H325.9c-.161,0-.238.09-.28.335l-.066.385c-.034.2-.126.236-.212.034-.3-.715-1.072-1.035-2.152-1.013a4.453,4.453,0,0,0-4.359,4.375,3.008,3.008,0,0,0,2.981,3.354,3.216,3.216,0,0,0,2.512-.972Zm-1.354-.961a1.625,1.625,0,0,1-1.667-1.907,2.324,2.324,0,0,1,2.234-1.907,1.625,1.625,0,0,1,1.667,1.907,2.324,2.324,0,0,1-2.234,1.907Zm8.142-5.556h-1.635c-.339,0-.476.248-.369.563l2.037,5.966-2.007,2.837c-.168.237-.038.453.2.453h1.844a.565.565,0,0,0,.548-.269l6.265-8.988c.193-.277.1-.567-.214-.567l-1.744,0c-.3,0-.42.118-.591.367l-2.614,3.792-1.163-3.8A.5.5,0,0,0,331.109,388.778Z" transform="translate(-288.932 -381.273)"/>
  <path id="Path_50477" data-name="Path 50477" class="cls-1" d="M539.073,385.134c1.65,0,3.173.895,2.964,3.126-.247,2.645-1.673,4.118-3.915,4.124h-1.956c-.282,0-.417.229-.491.7l-.378,2.407c-.057.364-.243.543-.519.543h-1.821c-.291,0-.392-.186-.327-.6l1.506-9.649c.074-.474.256-.651.577-.651Zm-2.967,5.165h1.484c.928-.035,1.544-.677,1.606-1.836a1.12,1.12,0,0,0-1.215-1.224l-1.4.006-.479,3.054Zm10.882,5c.166-.151.336-.23.312-.043l-.059.447c-.031.233.062.358.28.358h1.618c.272,0,.405-.11.472-.532l1-6.259c.05-.314-.026-.469-.265-.469h-1.779c-.161,0-.238.09-.28.335l-.066.385c-.034.2-.126.236-.212.034-.3-.715-1.072-1.035-2.152-1.013a4.453,4.453,0,0,0-4.359,4.375,3.008,3.008,0,0,0,2.981,3.354,3.216,3.216,0,0,0,2.511-.972Zm-1.354-.961a1.625,1.625,0,0,1-1.667-1.907,2.324,2.324,0,0,1,2.234-1.907,1.625,1.625,0,0,1,1.667,1.907,2.324,2.324,0,0,1-2.234,1.907Zm7.464,1.734h-1.868a.22.22,0,0,1-.229-.258l1.642-10.4a.322.322,0,0,1,.311-.258h1.868a.22.22,0,0,1,.229.258l-1.642,10.4A.322.322,0,0,1,553.1,396.068Z" transform="translate(-483.493 -381.273)"/>
  <path id="Path_50478" data-name="Path 50478" class="cls-2" d="M146.665,354.543h4.9c1.379,0,3.014.045,4.108,1.01a3.314,3.314,0,0,1,1.026,2.774c-.3,3.738-2.536,5.832-5.535,5.832h-2.414c-.411,0-.683.272-.8,1.01l-.674,4.286c-.044.278-.164.442-.384.462h-3.016c-.335,0-.454-.256-.366-.81l2.171-13.749A.867.867,0,0,1,146.665,354.543Z" transform="translate(-143.479 -354.543)"/>
  <path id="Path_50479" data-name="Path 50479" class="cls-3" d="M179.427,392.982l.855-5.411a.748.748,0,0,1,.851-.7h4.891a4.778,4.778,0,0,1,1.976.359c-.492,3.327-2.643,5.175-5.461,5.175h-2.414C179.807,392.4,179.57,392.567,179.427,392.982Z" transform="translate(-174.889 -382.789)"/>
</svg>
