<svg xmlns="http://www.w3.org/2000/svg" width="114.442" height="113.548" viewBox="0 0 114.442 113.548"><defs><style>.a{fill:#0080ff;}.b{fill:#fff;}</style></defs><g transform="translate(-904 -4685.776)"><g transform="translate(2 -45)"><path class="a" d="M11,0h92.442a11,11,0,0,1,11,11v91.548a11,11,0,0,1-11,11H11a11,11,0,0,1-11-11V11A11,11,0,0,1,11,0Z" transform="translate(902 4730.776)"/></g><g transform="translate(605.578 4424.889)"><path class="b" d="M371.619,296.045l2.051-2.26a1.676,1.676,0,0,1,2.354.1l6.811,6.184a1.679,1.679,0,0,1,.323,2.335l-2.433,2.682a31.47,31.47,0,0,0-9.106-9.039Zm11.472,26.2A28.444,28.444,0,1,1,354.645,293.8a28.477,28.477,0,0,1,28.446,28.446Zm-.769-14.785,2.895-3.187a4.454,4.454,0,0,0-.511-6.267l-6.809-6.184a4.456,4.456,0,0,0-6.286.091l-2.445,2.69a31.027,31.027,0,0,0-12.908-3.541v-6.286h4.524a1.346,1.346,0,1,0,0-2.689H348.726a1.346,1.346,0,1,0,0,2.689h4.547v6.278a31.241,31.241,0,1,0,28.933,16.52.7.7,0,0,0,.116-.115Z" transform="translate(0)"/><path class="b" d="M506.972,549.468a1.392,1.392,0,0,1,0-2.784,22.744,22.744,0,0,0,22.722-22.72,1.392,1.392,0,1,1,2.784,0,25.534,25.534,0,0,1-25.506,25.5Z" transform="translate(-152.325 -201.099)"/><path class="b" d="M475.75,444.176c-.6,3.849-3.39,6.243-7.769,6.736v2.047a1.507,1.507,0,1,1-2.987,0v-2.047c-3.757-.623-7.72-3.924-8.3-7.173a1.391,1.391,0,1,1,2.739-.493c.385,2.13,3.811,4.985,6.789,4.985,2.778,0,6.211-.777,6.783-4.48.513-3.34-1.723-3.762-4.054-4.508-4.853-1.558-9.313-3.19-10.62-6.014-1.716-3.711.248-8.716,6.069-9.962.205-.043.45-.079.645-.114-.014-.087,0-2.615,0-2.615a1.45,1.45,0,0,1,1.493-1.388,1.294,1.294,0,0,1,1.276,1.388s0,2.508,0,2.532a7.5,7.5,0,0,1,6.379,5.442,1.39,1.39,0,0,1-2.682.733c-.132-.461-1.412-4.346-6.527-3.258-4.015.86-5.115,3.936-4.129,6.073.9,1.948,6.136,3.632,8.946,4.531,1.722.556,6.876,1.6,5.953,7.584Z" transform="translate(-111.423 -114.613)"/></g></g></svg>