<svg xmlns="http://www.w3.org/2000/svg" width="57.231" height="272.15" viewBox="0 0 57.231 272.15">
    <defs>
        <style>
            .cls-1{fill:#ffdf00}
        </style>
    </defs>
    <g id="Group_480" transform="translate(-1940.558 -933.274)">
        <circle id="Ellipse_168" cx="2.725" cy="2.725" r="2.725" class="cls-1" transform="translate(1940.558 933.274)"/>
        <circle id="Ellipse_169" cx="2.725" cy="2.725" r="2.725" class="cls-1" transform="translate(1940.558 953.789)"/>
        <circle id="Ellipse_170" cx="2.725" cy="2.725" r="2.725" class="cls-1" transform="translate(1940.558 974.304)"/>
        <circle id="Ellipse_171" cx="2.725" cy="2.725" r="2.725" class="cls-1" transform="translate(1940.558 994.82)"/>
        <circle id="Ellipse_172" cx="2.725" cy="2.725" r="2.725" class="cls-1" transform="translate(1940.558 1015.335)"/>
        <circle id="Ellipse_173" cx="2.725" cy="2.725" r="2.725" class="cls-1" transform="translate(1940.558 1035.85)"/>
        <circle id="Ellipse_174" cx="2.725" cy="2.725" r="2.725" class="cls-1" transform="translate(1940.558 1056.366)"/>
        <circle id="Ellipse_175" cx="2.725" cy="2.725" r="2.725" class="cls-1" transform="translate(1940.558 1076.881)"/>
        <circle id="Ellipse_176" cx="2.725" cy="2.725" r="2.725" class="cls-1" transform="translate(1940.558 1097.396)"/>
        <circle id="Ellipse_177" cx="2.725" cy="2.725" r="2.725" class="cls-1" transform="translate(1940.558 1117.912)"/>
        <circle id="Ellipse_178" cx="2.725" cy="2.725" r="2.725" class="cls-1" transform="translate(1940.558 1138.427)"/>
        <circle id="Ellipse_179" cx="2.725" cy="2.725" r="2.725" class="cls-1" transform="translate(1940.558 1158.943)"/>
        <circle id="Ellipse_180" cx="2.725" cy="2.725" r="2.725" class="cls-1" transform="translate(1940.558 1179.458)"/>
        <circle id="Ellipse_181" cx="2.725" cy="2.725" r="2.725" class="cls-1" transform="translate(1940.558 1199.973)"/>
        <circle id="Ellipse_182" cx="2.725" cy="2.725" r="2.725" class="cls-1" transform="translate(1957.818 933.274)"/>
        <circle id="Ellipse_183" cx="2.725" cy="2.725" r="2.725" class="cls-1" transform="translate(1957.818 953.789)"/>
        <circle id="Ellipse_184" cx="2.725" cy="2.725" r="2.725" class="cls-1" transform="translate(1957.818 974.304)"/>
        <circle id="Ellipse_185" cx="2.725" cy="2.725" r="2.725" class="cls-1" transform="translate(1957.818 994.82)"/>
        <circle id="Ellipse_186" cx="2.725" cy="2.725" r="2.725" class="cls-1" transform="translate(1957.818 1015.335)"/>
        <circle id="Ellipse_187" cx="2.725" cy="2.725" r="2.725" class="cls-1" transform="translate(1957.818 1035.85)"/>
        <circle id="Ellipse_188" cx="2.725" cy="2.725" r="2.725" class="cls-1" transform="translate(1957.818 1056.366)"/>
        <circle id="Ellipse_189" cx="2.725" cy="2.725" r="2.725" class="cls-1" transform="translate(1957.818 1076.881)"/>
        <circle id="Ellipse_190" cx="2.725" cy="2.725" r="2.725" class="cls-1" transform="translate(1957.818 1097.396)"/>
        <circle id="Ellipse_191" cx="2.725" cy="2.725" r="2.725" class="cls-1" transform="translate(1957.818 1117.912)"/>
        <circle id="Ellipse_192" cx="2.725" cy="2.725" r="2.725" class="cls-1" transform="translate(1957.818 1138.427)"/>
        <circle id="Ellipse_193" cx="2.725" cy="2.725" r="2.725" class="cls-1" transform="translate(1957.818 1158.943)"/>
        <circle id="Ellipse_194" cx="2.725" cy="2.725" r="2.725" class="cls-1" transform="translate(1957.818 1179.458)"/>
        <circle id="Ellipse_195" cx="2.725" cy="2.725" r="2.725" class="cls-1" transform="translate(1957.818 1199.973)"/>
        <circle id="Ellipse_196" cx="2.725" cy="2.725" r="2.725" class="cls-1" transform="translate(1975.078 933.274)"/>
        <circle id="Ellipse_197" cx="2.725" cy="2.725" r="2.725" class="cls-1" transform="translate(1975.078 953.789)"/>
        <circle id="Ellipse_198" cx="2.725" cy="2.725" r="2.725" class="cls-1" transform="translate(1975.078 974.304)"/>
        <circle id="Ellipse_199" cx="2.725" cy="2.725" r="2.725" class="cls-1" transform="translate(1975.078 994.82)"/>
        <circle id="Ellipse_200" cx="2.725" cy="2.725" r="2.725" class="cls-1" transform="translate(1975.078 1015.335)"/>
        <circle id="Ellipse_201" cx="2.725" cy="2.725" r="2.725" class="cls-1" transform="translate(1975.078 1035.85)"/>
        <circle id="Ellipse_202" cx="2.725" cy="2.725" r="2.725" class="cls-1" transform="translate(1975.078 1056.366)"/>
        <circle id="Ellipse_203" cx="2.725" cy="2.725" r="2.725" class="cls-1" transform="translate(1975.078 1076.881)"/>
        <circle id="Ellipse_204" cx="2.725" cy="2.725" r="2.725" class="cls-1" transform="translate(1975.078 1097.396)"/>
        <circle id="Ellipse_205" cx="2.725" cy="2.725" r="2.725" class="cls-1" transform="translate(1975.078 1117.912)"/>
        <circle id="Ellipse_206" cx="2.725" cy="2.725" r="2.725" class="cls-1" transform="translate(1975.078 1138.427)"/>
        <circle id="Ellipse_207" cx="2.725" cy="2.725" r="2.725" class="cls-1" transform="translate(1975.078 1158.943)"/>
        <circle id="Ellipse_208" cx="2.725" cy="2.725" r="2.725" class="cls-1" transform="translate(1975.078 1179.458)"/>
        <circle id="Ellipse_209" cx="2.725" cy="2.725" r="2.725" class="cls-1" transform="translate(1975.078 1199.973)"/>
        <circle id="Ellipse_210" cx="2.725" cy="2.725" r="2.725" class="cls-1" transform="translate(1992.338 933.274)"/>
        <circle id="Ellipse_211" cx="2.725" cy="2.725" r="2.725" class="cls-1" transform="translate(1992.338 953.789)"/>
        <circle id="Ellipse_212" cx="2.725" cy="2.725" r="2.725" class="cls-1" transform="translate(1992.338 974.304)"/>
        <circle id="Ellipse_213" cx="2.725" cy="2.725" r="2.725" class="cls-1" transform="translate(1992.338 994.82)"/>
        <ellipse id="Ellipse_214" cx="1.425" cy="2.759" class="cls-1" rx="1.425" ry="2.759" transform="translate(1992.338 1015.268)"/>
        <circle id="Ellipse_215" cx="2.725" cy="2.725" r="2.725" class="cls-1" transform="translate(1992.338 1035.85)"/>
        <circle id="Ellipse_216" cx="2.725" cy="2.725" r="2.725" class="cls-1" transform="translate(1992.338 1056.366)"/>
        <circle id="Ellipse_217" cx="2.725" cy="2.725" r="2.725" class="cls-1" transform="translate(1992.338 1076.881)"/>
        <circle id="Ellipse_218" cx="2.725" cy="2.725" r="2.725" class="cls-1" transform="translate(1992.338 1097.396)"/>
        <circle id="Ellipse_219" cx="2.725" cy="2.725" r="2.725" class="cls-1" transform="translate(1992.338 1117.912)"/>
        <circle id="Ellipse_220" cx="2.725" cy="2.725" r="2.725" class="cls-1" transform="translate(1992.338 1138.427)"/>
        <circle id="Ellipse_221" cx="2.725" cy="2.725" r="2.725" class="cls-1" transform="translate(1992.338 1158.943)"/>
        <circle id="Ellipse_222" cx="2.725" cy="2.725" r="2.725" class="cls-1" transform="translate(1992.338 1179.458)"/>
        <circle id="Ellipse_223" cx="2.725" cy="2.725" r="2.725" class="cls-1" transform="translate(1992.338 1199.973)"/>
    </g>
</svg>
