<svg xmlns="http://www.w3.org/2000/svg" width="114.442" height="113.548" viewBox="0 0 114.442 113.548">
  <defs>
    <style>
      .cls-1 {
        fill: #0080ff;
      }

      .cls-2 {
        fill: #fff;
      }
    </style>
  </defs>
  <g id="Group_3539" data-name="Group 3539" transform="translate(-901.879 -5150.909)">
    <rect id="Rectangle_73" data-name="Rectangle 73" class="cls-1" width="114.442" height="113.548" rx="11" transform="translate(901.879 5150.909)"/>
    <g id="Group_3493" data-name="Group 3493" transform="translate(932 5176.363)">
      <path id="Path_50340" data-name="Path 50340" class="cls-2" d="M395.3,302.725h-7.831V264.69a1.119,1.119,0,0,0-1.119-1.119h-35.8a1.118,1.118,0,0,0-1.118,1.119v38.036h-7.832a1.118,1.118,0,0,0-.774,1.926l26.848,25.73a1.12,1.12,0,0,0,1.548,0l26.849-25.73a1.119,1.119,0,0,0-.775-1.926Zm-26.848,25.3L344.39,304.962h6.166a1.119,1.119,0,0,0,1.119-1.118V265.808h33.561v38.036a1.118,1.118,0,0,0,1.119,1.118h6.166Z" transform="translate(-340.488 -263.571)"/>
      <path id="Path_50341" data-name="Path 50341" class="cls-2" d="M480.061,344.962a4.475,4.475,0,0,1,4.475,4.475h2.237a6.718,6.718,0,0,0-5.593-6.612v-2.338h-2.237v2.338a6.712,6.712,0,0,0,1.119,13.323,4.475,4.475,0,1,1-4.475,4.475h-2.237a6.717,6.717,0,0,0,5.594,6.611v2.338h2.237v-2.338a6.712,6.712,0,0,0-1.119-13.323,4.475,4.475,0,1,1,0-8.95Z" transform="translate(-452.094 -328.182)"/>
    </g>
  </g>
</svg>
