<svg xmlns="http://www.w3.org/2000/svg" xmlns:xlink="http://www.w3.org/1999/xlink" width="117" height="117" viewBox="0 0 117 117"><defs><style>.a{fill:#416ed1;}.b{clip-path:url(#a);}.c{fill:#0f4fac;}.d{fill:#213e7e;}.e,.g,.h{fill:none;}.e,.f,.g,.h{stroke:#fff;stroke-width:2.5px;}.e,.g{stroke-linecap:round;}.e,.f,.h{stroke-miterlimit:10;}.f{fill:#d2e3ff;}.g{stroke-linejoin:round;}</style><clipPath id="a"><circle class="a" cx="58.5" cy="58.5" r="58.5" transform="translate(729 1840)"/></clipPath></defs><g transform="translate(-1279.002 -2283)"><g class="b" transform="translate(550.002 443)"><path class="c" d="M0,0H161V73H0Z" transform="translate(711 1897)"/><path class="d" d="M0,0H161V73H0Z" transform="translate(711 1825)"/></g><g transform="translate(1309.27 2310.749)"><g transform="translate(-19 -8.902)"><line class="e" y2="9.825" transform="translate(48.265 44.614)"/><path class="f" d="M925,4354.84a1.962,1.962,0,1,1-1.963-1.962A1.963,1.963,0,0,1,925,4354.84Z" transform="translate(-874.775 -4310.768)"/><g transform="translate(27.609 15.581)"><path class="g" d="M2.126,0h37.2A2.125,2.125,0,0,1,41.45,2.125V31.653a2.126,2.126,0,0,1-2.126,2.126H2.124A2.124,2.124,0,0,1,0,31.655V2.126A2.126,2.126,0,0,1,2.126,0Z" transform="translate(0 15.358)"/><path class="h" d="M939.134,4349.93v-5.554a9.583,9.583,0,0,0-9.554-9.556h-6.168a9.582,9.582,0,0,0-9.554,9.556v5.554" transform="translate(-905.771 -4334.82)"/></g></g></g></g></svg>