<svg xmlns="http://www.w3.org/2000/svg" xmlns:xlink="http://www.w3.org/1999/xlink" width="117" height="117" viewBox="0 0 117 117"><defs><style>.a{fill:#263b80;}.b{clip-path:url(#a);}.c{fill:#febe0f;}.d{fill:#f8cc64;}.e,.f{fill:none;stroke:#fff;stroke-width:2.5px;}.e{stroke-miterlimit:10;}.f{stroke-linejoin:round;}</style><clipPath id="a"><circle class="a" cx="58.5" cy="58.5" r="58.5" transform="translate(729 1840)"/></clipPath></defs><g transform="translate(-1016 -1905)"><g class="b" transform="translate(287 65)"><rect class="c" width="161" height="73" transform="translate(711 1898)"/><rect class="d" width="161" height="73" transform="translate(711 1825)"/></g><g transform="translate(1043.973 1939.57)"><g transform="translate(18.124 14.496)"><circle class="e" cx="11.808" cy="11.808" r="11.808"/><g transform="translate(6.718 3.805)"><path class="e" d="M906.084,1233.178c-2.81,0-5.09-1.149-5.09-2.567s2.28-2.568,5.09-2.568c2.385,0,4.388.827,4.943,1.944" transform="translate(-900.994 -1225.173)"/><path class="e" d="M906.1,1234.139c2.814,0,5.093,1.148,5.093,2.568s-2.28,2.568-5.093,2.568c-2.512,0-4.6-.919-5.016-2.127" transform="translate(-901.008 -1226.128)"/><line class="e" y2="16.047" transform="translate(5.163)"/></g></g><g transform="translate(17.751 0)"><path class="f" d="M903.756,1209.6l-7.788.662a2.869,2.869,0,0,1-3.368-2.316,2.971,2.971,0,0,1,2.794-3.1l18.211-1.9.87.124,14.086,5.314a10.193,10.193,0,0,0,5.153-1.33" transform="translate(-892.587 -1202.942)"/><path class="e" d="M938.465,1217.316l-8.7,3.236a9.251,9.251,0,0,1-7.134-1.825,32.9,32.9,0,0,0-4.831-2.642l-5.469-2.233a2.818,2.818,0,1,1,2.112-5.17l7.566,3.09" transform="translate(-895.352 -1203.799)"/></g><g transform="translate(0 36.267)"><path class="f" d="M903.853,1257.967l7.788-.66a2.868,2.868,0,0,1,3.368,2.315,2.974,2.974,0,0,1-2.8,3.1l-18.21,1.9-.87-.125-14.086-5.315a10.21,10.21,0,0,0-5.154,1.33" transform="translate(-871.909 -1247.718)"/><path class="e" d="M871.541,1249.335l8.7-3.235a9.244,9.244,0,0,1,7.131,1.824,32.912,32.912,0,0,0,4.833,2.641l5.467,2.234a2.818,2.818,0,1,1-2.111,5.169l-7.565-3.09" transform="translate(-871.541 -1245.941)"/></g></g></g></svg>