<svg xmlns="http://www.w3.org/2000/svg" width="114" height="113" viewBox="0 0 114 113">
  <defs>
    <style>
      .cls-1 {
        fill: #0080ff;
      }

      .cls-2 {
        fill: #fff;
      }
    </style>
  </defs>
  <g id="Group_3541" data-name="Group 3541" transform="translate(-1363 -5151)">
    <rect id="Rectangle_74" data-name="Rectangle 74" class="cls-1" width="114" height="113" rx="11" transform="translate(1363 5151)"/>
    <g id="Group_3495" data-name="Group 3495" transform="translate(1063.527 4885.669)">
      <path id="Path_50342" data-name="Path 50342" class="cls-2" d="M538.882,661.591l-.252-2.683a29.959,29.959,0,0,0,4.23-.71l.636,2.617a32.491,32.491,0,0,1-4.614.776Z" transform="translate(-179.436 -309.177)"/>
      <path id="Path_50343" data-name="Path 50343" class="cls-2" d="M485.761,662.195a32.024,32.024,0,0,1-4.629-.7l.6-2.625a29.976,29.976,0,0,0,4.242.64l-.208,2.687Z" transform="translate(-131.925 -309.73)"/>
      <path id="Path_50344" data-name="Path 50344" class="cls-2" d="M592.139,641.7l-1.08-2.465a29.772,29.772,0,0,0,3.792-2l1.427,2.288a32.214,32.214,0,0,1-4.139,2.179Z" transform="translate(-222.757 -291.858)"/>
      <path id="Path_50345" data-name="Path 50345" class="cls-2" d="M430.48,643.092a32.461,32.461,0,0,1-4.176-2.117l1.388-2.307a30.063,30.063,0,0,0,3.829,1.939l-1.041,2.485Z" transform="translate(-86.622 -293.039)"/>
      <path id="Path_50346" data-name="Path 50346" class="cls-2" d="M692.753,507.136l-2.637-.55a29.586,29.586,0,0,0,.566-4.249l2.691.159a32.214,32.214,0,0,1-.62,4.641Z" transform="translate(-304.607 -180.389)"/>
      <path id="Path_50347" data-name="Path 50347" class="cls-2" d="M336.9,509.917a32.447,32.447,0,0,1-.694-4.625l2.685-.209a30.025,30.025,0,0,0,.638,4.245l-2.629.589Z" transform="translate(-12.176 -182.658)"/>
      <path id="Path_50348" data-name="Path 50348" class="cls-2" d="M688.909,449.384a29.876,29.876,0,0,0-.779-4.222l2.605-.678a32.864,32.864,0,0,1,.853,4.6l-2.68.3Z" transform="translate(-302.966 -132.586)"/>
      <path id="Path_50349" data-name="Path 50349" class="cls-2" d="M339.136,452.254,336.453,452a32.615,32.615,0,0,1,.779-4.618l2.617.64a30.034,30.034,0,0,0-.713,4.23Z" transform="translate(-12.378 -134.983)"/>
      <path id="Path_50350" data-name="Path 50350" class="cls-2" d="M419.89,327.8l-1.5-2.233a32.124,32.124,0,0,1,4.063-2.326l1.163,2.431a30.476,30.476,0,0,0-3.726,2.129Z" transform="translate(-80.082 -32.403)"/>
      <path id="Path_50351" data-name="Path 50351" class="cls-2" d="M587,321.411a29.278,29.278,0,0,0-3.893-1.81l.955-2.52a32.513,32.513,0,0,1,4.245,1.973L587,321.411Z" transform="translate(-216.184 -27.314)"/>
      <path id="Path_50352" data-name="Path 50352" class="cls-2" d="M472.773,310.068l-.725-2.594a32.307,32.307,0,0,1,4.587-.931l.343,2.671a29.752,29.752,0,0,0-4.2.853Z" transform="translate(-124.419 -18.607)"/>
      <path id="Path_50353" data-name="Path 50353" class="cls-2" d="M534.319,308.366a30.282,30.282,0,0,0-4.261-.493l.116-2.691a32.333,32.333,0,0,1,4.649.539l-.5,2.645Z" transform="translate(-172.353 -17.484)"/>
      <path id="Path_50354" data-name="Path 50354" class="cls-2" d="M333.182,583.43l-3.726,7.456h1.931a1.347,1.347,0,0,1,0,2.695h-2.695v4.49a1.347,1.347,0,0,1-2.695,0v-4.49H323.3a1.347,1.347,0,1,1,0-2.695h2.04l-3.728-7.456a1.345,1.345,0,0,1,2.406-1.2l3.377,6.754,3.377-6.754a1.346,1.346,0,0,1,2.408,1.2Z" transform="translate(0 -245.788)"/>
      <path id="Path_50355" data-name="Path 50355" class="cls-2" d="M652.7,587.538c0,.155-.071,3.854-6.385,4.032h-6.26a1.344,1.344,0,0,1-1.345-1.346c0-.729,1.642-2.237,2.109-2.427a3.169,3.169,0,0,0,1.859-2.811h-3.36v-2.695H642.4a24.145,24.145,0,0,1-.432-4.552,4.4,4.4,0,0,1,4.024-4.447,4.565,4.565,0,0,1,4.8,2.849,1.351,1.351,0,0,1-2.524.962,1.84,1.84,0,0,0-1.985-1.124,1.676,1.676,0,0,0-1.625,1.76,21.283,21.283,0,0,0,.494,4.552h4.05v2.695h-3.807a6.341,6.341,0,0,1-1.562,3.889h2.45c2.8-.082,3.666-.962,3.73-1.419l1.346.081Z" transform="translate(-262.134 -238.994)"/>
      <path id="Path_50356" data-name="Path 50356" class="cls-2" d="M646.879,304.253a6.724,6.724,0,0,1-3.916,1.733c-.2.019-.384.027-.574.027a6.979,6.979,0,0,1-4.967-2.163,8.388,8.388,0,0,1-1.679-2.408h-3.862v-2.695h3.026a6.631,6.631,0,0,1-.091-.7,10.048,10.048,0,0,1,.027-1.993h-2.962v-2.695h3.691a7.276,7.276,0,0,1,5.9-4.536,6.913,6.913,0,0,1,5.219,1.841l-1.807,2a4.192,4.192,0,0,0-3.179-1.159,4.243,4.243,0,0,0-3.071,1.849h4.022v2.695h-5.1a7.161,7.161,0,0,0-.062,1.76,5.966,5.966,0,0,0,.143.934h5.019v2.695h-3.771a6,6,0,0,0,.438.5,4.275,4.275,0,0,0,3.4,1.353,4,4,0,0,0,2.346-1.05l1.8,2Z" transform="translate(-256.489 -3.945)"/>
      <path id="Path_50357" data-name="Path 50357" class="cls-2" d="M341.416,297.7a4.237,4.237,0,0,1-3.367,3.649l.017,1.237a1.279,1.279,0,0,1-1.328,1.194h-.019a1.3,1.3,0,0,1-1.347-1.167l-.017-1.213a5.459,5.459,0,0,1-3.951-3.889,1.348,1.348,0,0,1,2.658-.457,2.925,2.925,0,0,0,2.343,1.8c2.121,0,2.28-1.117,2.344-1.535.118-.8-.171-.946-.405-1.062-.143-.07-.574-.213-.942-.341-2.344-.791-4.509-1.632-5.207-3.234a3.985,3.985,0,0,1,.116-3.385,4.349,4.349,0,0,1,2.8-2.191,1.2,1.2,0,0,1-.027-.252v-1.617a1.355,1.355,0,0,1,2.695,0v1.617a1.232,1.232,0,0,1-.018.178,4.2,4.2,0,0,1,2.935,2.982,1.346,1.346,0,0,1-2.6.682,1.541,1.541,0,0,0-2.076-1.051,1.781,1.781,0,0,0-1.3.865,1.375,1.375,0,0,0-.064,1.086c.19.43,1.4,1.023,3.612,1.768a12.343,12.343,0,0,1,1.258.469,3.469,3.469,0,0,1,1.895,3.869Z" transform="translate(-8.189)"/>
      <path id="Path_50358" data-name="Path 50358" class="cls-2" d="M445.128,405.346a6.993,6.993,0,0,0-1.122-2.691l4.22-4.218a13.064,13.064,0,0,1,2.7,6.909h-5.795Zm2.922,9.4-4.044-4.04a6.97,6.97,0,0,0,1.122-2.691h5.752a13.012,13.012,0,0,1-2.831,6.731Zm-8.619,4.793v-5.824a7,7,0,0,0,2.689-1.121l4.05,4.048a13.07,13.07,0,0,1-6.739,2.9Zm-1.334-8.371a4.486,4.486,0,1,1,4.486-4.486,4.49,4.49,0,0,1-4.486,4.486Zm-1.336,8.433a13.093,13.093,0,0,1-6.988-2.706l4.3-4.3a6.994,6.994,0,0,0,2.689,1.121V419.6Zm-8.927-4.54a12.963,12.963,0,0,1-3.1-7.045h6.328a6.991,6.991,0,0,0,1.12,2.691l-4.35,4.354Zm-.19-16.943,4.54,4.54a7.014,7.014,0,0,0-1.12,2.691H424.69a13.089,13.089,0,0,1,2.954-7.231Zm9.117-4.761v6.293a7,7,0,0,0-2.689,1.124l-4.531-4.532a13.029,13.029,0,0,1,7.219-2.885Zm2.67.062a13.146,13.146,0,0,1,6.962,3.082l-4.273,4.273a7,7,0,0,0-2.689-1.124v-6.231Zm15.241,11.93H453.6a15.6,15.6,0,0,0-3.48-8.805l.642-.64a1.346,1.346,0,0,0,0-1.888,1.332,1.332,0,0,0-1.888,0l-.6.6a15.792,15.792,0,0,0-8.848-3.889V390.1a1.335,1.335,0,0,0-2.67,0v.57a15.726,15.726,0,0,0-9.117,3.668l-.328-.33a1.335,1.335,0,1,0-1.886,1.888l.318.318a15.645,15.645,0,0,0-3.738,9.127h-.5a1.334,1.334,0,1,0,0,2.668h.525a15.647,15.647,0,0,0,3.908,8.929l-.516.52a1.334,1.334,0,0,0,.942,2.276,1.339,1.339,0,0,0,.944-.392l.553-.551a15.788,15.788,0,0,0,8.892,3.482v.985a1.335,1.335,0,1,0,2.67,0v-1.031a15.751,15.751,0,0,0,8.627-3.7l.818.818a1.325,1.325,0,0,0,.944.392,1.334,1.334,0,0,0,.944-2.276l-.818-.822a15.845,15.845,0,0,0,3.631-8.627h1.1a1.334,1.334,0,0,0,0-2.668Z" transform="translate(-81.559 -86.552)"/>
    </g>
  </g>
</svg>
