<svg xmlns="http://www.w3.org/2000/svg" xmlns:xlink="http://www.w3.org/1999/xlink" width="117" height="117" viewBox="0 0 117 117"><defs><style>.a{fill:#213e7e;}.b{clip-path:url(#a);}.c{fill:#044097;}.d{fill:#0080ff;}.e{fill:#fff;}</style><clipPath id="a"><circle class="a" cx="58.5" cy="58.5" r="58.5" transform="translate(729 1840)"/></clipPath></defs><g transform="translate(-338.525 -2283)"><g class="b" transform="translate(-390.475 443)"><rect class="c" width="161" height="73" transform="translate(711 1898)"/><rect class="d" width="161" height="73" transform="translate(711 1825)"/></g><g transform="translate(364.193 2310.409)"><g transform="translate(0 0)"><g transform="translate(0 0)"><path class="e" d="M474.731,504.449a1.318,1.318,0,0,0-1.324,1.323v5.889a6.04,6.04,0,1,0,2.642,0v-5.889A1.312,1.312,0,0,0,474.731,504.449Zm3.392,13.1a3.393,3.393,0,1,1-3.392-3.393h0A3.4,3.4,0,0,1,478.122,517.55Z" transform="translate(-442.047 -458.213)"/><path class="e" d="M474.731,214.995a1.312,1.312,0,0,0,1.318-1.322v-5.889a6.035,6.035,0,1,0-2.642,0v5.889A1.318,1.318,0,0,0,474.731,214.995Zm-3.395-13.1a3.393,3.393,0,1,1,3.395,3.392h0A3.4,3.4,0,0,1,471.336,201.893Z" transform="translate(-442.047 -195.87)"/><path class="e" d="M606.668,381.052a6.036,6.036,0,1,0,0-2.643h-5.889a1.322,1.322,0,0,0,0,2.643Zm2.5-1.322a3.392,3.392,0,1,1,3.392,3.393,3.4,3.4,0,0,1-3.392-3.393Z" transform="translate(-553.22 -347.049)"/><path class="e" d="M290.868,379.729a6.029,6.029,0,0,0,11.914,1.322h5.891a1.322,1.322,0,0,0,0-2.643h-5.891a6.029,6.029,0,0,0-11.914,1.321Zm9.417,0a3.392,3.392,0,1,1-3.393-3.392A3.4,3.4,0,0,1,300.285,379.729Z" transform="translate(-290.868 -347.049)"/><path class="e" d="M570.755,475.748a1.317,1.317,0,0,0,0,1.871l4.169,4.166a6.025,6.025,0,0,0,.828,7.48,6.035,6.035,0,1,0,1.043-9.362l-4.169-4.167A1.328,1.328,0,0,0,570.755,475.748Zm6.865,6.865h0a3.41,3.41,0,1,1-.986,2.4A3.3,3.3,0,0,1,577.62,482.613Z" transform="translate(-528.486 -433.479)"/><path class="e" d="M353.293,249.774a6.025,6.025,0,1,0-1.04,9.35l4.167,4.167a1.325,1.325,0,0,0,1.871,0,1.32,1.32,0,0,0,0-1.871l-4.17-4.167a5.943,5.943,0,0,0,.935-3.218A5.868,5.868,0,0,0,353.293,249.774Zm-1.868,6.651h0a3.372,3.372,0,0,1-2.391.988,3.379,3.379,0,1,1,2.391-5.768,3.37,3.37,0,0,1,.989,2.39A3.3,3.3,0,0,1,351.425,256.425Z" transform="translate(-335.197 -240.199)"/><path class="e" d="M573.906,253.959a5.986,5.986,0,0,0,.931,3.218l-4.169,4.167a1.323,1.323,0,0,0,0,1.871,1.329,1.329,0,0,0,1.874,0l4.181-4.167a6.021,6.021,0,0,0,7.479-.83,6.029,6.029,0,0,0-4.262-10.3,6.037,6.037,0,0,0-6.033,6.037Zm3.642-2.39a3.387,3.387,0,1,1,0,4.793h0a3.373,3.373,0,0,1-.985-2.39A3.275,3.275,0,0,1,577.548,251.569Z" transform="translate(-528.414 -240.123)"/><path class="e" d="M358.291,475.756a1.317,1.317,0,0,0-1.871,0l-4.167,4.169a6.021,6.021,0,1,0,1.04,9.349,6.034,6.034,0,0,0,.828-7.493l4.17-4.167A1.3,1.3,0,0,0,358.291,475.756ZM351.425,487.4a3.367,3.367,0,0,1-2.391.99,3.33,3.33,0,0,1-2.39-.99,3.381,3.381,0,0,1,4.781-4.781h0A3.382,3.382,0,0,1,351.425,487.4Z" transform="translate(-335.197 -433.488)"/><path class="e" d="M472.132,351.387h3.056a2.036,2.036,0,0,1,0,4.072h-5.5a1.323,1.323,0,1,0,0,2.645h2.657v1.923a1.321,1.321,0,1,0,2.642,0V358.1h.215a4.681,4.681,0,1,0,0-9.362h-3.056a2.03,2.03,0,1,1,0-4.06h5.4a1.323,1.323,0,0,0,0-2.645h-2.555v-1.882a1.321,1.321,0,1,0-2.642,0v1.882h-.212a4.675,4.675,0,1,0,0,9.35Z" transform="translate(-440.985 -317.41)"/></g></g></g></g></svg>