<svg id="Group_3556" data-name="Group 3556" xmlns="http://www.w3.org/2000/svg" width="38.859" height="43.494" viewBox="0 0 38.859 43.494">
  <defs>
    <style>
      .cls-1 {
        fill: #fff;
      }

      .cls-2 {
        fill: #0c1e31;
      }

      .cls-3 {
        fill: #eaf6fc;
      }
    </style>
  </defs>
  <g id="Group_3553" data-name="Group 3553" transform="translate(0)">
    <path id="Path_50463" data-name="Path 50463" class="cls-1" d="M52.988,50.836h7.65a35.673,35.673,0,0,0,2.371-3.32c.21-.558.767.07.628.7s-.767,1.466-.837,1.814.07.627.7-.07a8.292,8.292,0,0,0,1.116-2.65c.07-.209.279.07.349.488,0,0,.07.7.349.279s.488-1.4.558-.349a1.772,1.772,0,0,1-1.116,1.6c-.209.139.558.209.419.488s-.7.976-1.046.976h2.232s3.975-3.069,4.394-6.835c.139-.628-1.743.279-2.023-1.325-.07-.7-1.116.976-1.325,1.046s-.488-.488.558-2.162c.419-.558-.488-.907-1.116-.14s-.976.14-.419-.558a5.1,5.1,0,0,1,3.557-2.371c2.022-.209,3.417-.349,4.812.7,0,0,.836.07.836-.628s-1.813-.488-2.371-.7S71.587,35.8,71.447,35.59a1.039,1.039,0,0,0-1.185-.07c-.279.279-1.255,2.162-2.162,2.511s-.767.558-.7,0a.974.974,0,0,0-.907.419c-.279.488-1.116,1.534-.767.279,0,0,.837-.907-.209-.768,0,0-1.116,1.046-.7,0s.907-.139,1.046-1.046.349-.349.767-.488,0-.768.7-.976c.558-.139-.419-1.116-.837-.488s-.907.349-1.046.627-.488.907-.767.976,0,.558-.419.558-.209-.419-.069-.837.628-.7.628-.976-.28-.489-.767-.209-.7-.07-.488-.628,1.883-2.65,2.65-2.72,1.534-.906,4.045,3.139c.209.349.976,0,.976,0s.767-1.534.907-1.883a4.9,4.9,0,0,1,1.743-1.6,1.222,1.222,0,0,0,.628-1.6c-.349-.488-.837-.558-.976-.07s-.557-.349-.557-.349a4.99,4.99,0,0,1-1.046.349,7.239,7.239,0,0,1-2.162-.07,2.188,2.188,0,0,0-1.465.488c-.279.279-.628,0-.558-.349s-.418-1.255,0-1.116,1.465.907,1.743,0-1.325-2.092-1.325-2.581.837-1.186-.279-1.325c-.976.139-1.046.07-1.255-.279s-.349-.976.07-.976a.788.788,0,0,0,.837-.907c0-.7.209-1.185.767-.767s1.465,1.186,1.674.837,0-1.464.558-1.464,1.116.279,1.186,1.395c0,0,.349.209.837-.209s1.325-1.255,1.186-.558.279.488.348.767.279,1.325.7.837a1.808,1.808,0,0,1,.976-.7c.279-.07.14-.628.768-.628s2.65-.209,2.72-1.116a6.682,6.682,0,0,0,0-2.65c-.279-.488-.558-1.674-.209-2.092s.418-.488-.419-.628-1.744-.7-1.744-1.255.349-.07.7-.07,1.952-.488,1.952,0-.139,1.744.419,1.465,1.813-.279,1.674.349-.349,1.534.209,1.186A4.877,4.877,0,0,0,84.7,13.9c.418-2.3-1.673-4.673-2.231-5.091s-.071-.279-.071-.279-.139-1.255-.557-1.186H52.988V25.129a1.135,1.135,0,0,0,1.3-.488c.488-.768,1.813-3.208,4.254-2.581.419.279-.209.488-.209.488s-2.859.419-3.487,1.953c-.209.418.419.279.7.07s1.743-1.185,1.534-.488-3,1.395-3.557,2.79c0,0,.558.489,1.255-.349s1.674-1.395,1.534-.907-3.068,2.581-3.278,2.929v3.347s2.162-3.069,2.929-2.859-.976,2.441-1.255,2.72a1.356,1.356,0,0,1,.139-.976s-1.744,1.953-1.813,3.7S52.988,50.836,52.988,50.836Z" transform="translate(-52.984 -7.342)"/>
    <path id="Path_50464" data-name="Path 50464" class="cls-1" d="M56.079,21.728s.558-1.325,1.395-1.395,3.208-.349,6.346,2.859c0,0-.279.349-1.743-.07s-3.836-2.441-4.115-2.022-.21.558-.976.488C56.986,21.589,56.5,22.077,56.079,21.728Z" transform="translate(-55.121 -16.285)"/>
    <path id="Path_50465" data-name="Path 50465" class="cls-1" d="M71.171,11.885s1.883,1.813,2.023,2.58c0,0,0-1.674.349-.976a10.206,10.206,0,0,0,1.6,2.65c.418.209.14-1.394-.7-2.3-.558-.628.14-.906.488-.349s1.255,2.3,1.534,2.859a2.294,2.294,0,0,0,1.186,1.046c.279.069-.07-.558.628-.14a9.362,9.362,0,0,1-1.325-1.6c-.209-.488-1.185-2.929-3.487-3.7S71.171,11.885,71.171,11.885Z" transform="translate(-65.54 -10.278)"/>
    <path id="Path_50466" data-name="Path 50466" class="cls-2" d="M86.264,39.994a1.2,1.2,0,0,1,1.116-.976c.976-.07,1.6-1.116,2.162-2.232.279-.628,2.58,0,2.371,1.883s-1.255,1.744-1.255,1.046-.14-1.674-.419-1.186-.7,1.883-1.883,1.534S86.473,40.2,86.264,39.994Z" transform="translate(-75.961 -27.508)"/>
    <path id="Path_50467" data-name="Path 50467" class="cls-2" d="M119.006,41.025s-1.534-1.883-.279-3.626c.558-.7,1.883.14,2.232.767a4.424,4.424,0,0,0,2.232,1.743c.907.279.837,1.186.07.976a11.684,11.684,0,0,0-1.953-.209c-.489-.07-1.116-.837-1.255-1.186l-.558-.07s-.279.7-.07.976S119.285,41.235,119.006,41.025Z" transform="translate(-98.032 -27.911)"/>
    <path id="Path_50468" data-name="Path 50468" class="cls-1" d="M122.5,62.94s.209-1.4-.21-1.883-1.255-1.255-.767-2.092,1.6-.558,1.814-.837,1.185-1.883,1.534-1.953,1.116-.07.767.907c-.209.558-1.534,1.116-1.534,1.534s-.069,1.813-.558,2.023c0,0-.069,1.4-.14,1.744S122.779,63.288,122.5,62.94Z" transform="translate(-100.202 -41.038)"/>
    <path id="Path_50469" data-name="Path 50469" class="cls-1" d="M105.381,61.917a2.026,2.026,0,0,1,.14-2.859c.558-.418.906,2.092.558,2.65l-.139,1.534s-.7-.139-.7-.349S105.381,61.917,105.381,61.917Z" transform="translate(-88.801 -43.014)"/>
    <path id="Path_50470" data-name="Path 50470" class="cls-1" d="M87.165,54.122s.7,1.116,1.186.976a1.565,1.565,0,0,1,1.116-.07c.418.139.837-.349.209-.558s-1.046.209-1.464,0S87.444,53.983,87.165,54.122Z" transform="translate(-76.583 -39.613)"/>
  </g>
  <g id="Group_3554" data-name="Group 3554" transform="translate(25.65 32.781)">
    <path id="Path_50471" data-name="Path 50471" class="cls-3" d="M141.49,120.822a2.475,2.475,0,0,1-1.848.752,4.969,4.969,0,0,1-2.148-.651,3.454,3.454,0,0,1-1.207-1.416,4.53,4.53,0,0,1-.453-2.025,5.249,5.249,0,0,1,.467-2.2,3.721,3.721,0,0,1,1.2-1.543,2.665,2.665,0,0,1,1.571-.516,2.453,2.453,0,0,1,.91.175,3.748,3.748,0,0,1,.958.6l.013.023h.308l.125,2.363h-.328c-.215-.886-.159-1.532-.485-1.951a1.787,1.787,0,0,0-1.448-.789,1.711,1.711,0,0,0-1.482.879,5.71,5.71,0,0,0-.573,2.975,4.628,4.628,0,0,0,.656,2.69,2.945,2.945,0,0,0,2.052.942,1.981,1.981,0,0,0,1.477-.611Z" transform="translate(-135.833 -113.224)"/>
  </g>
  <g id="Group_3555" data-name="Group 3555" transform="translate(32.184 33.031)">
    <path id="Path_50472" data-name="Path 50472" class="cls-3" d="M156.936,114.032h3.791a2.792,2.792,0,0,1,1.826.525,1.642,1.642,0,0,1,.633,1.318,1.568,1.568,0,0,1-.441,1.124,3.022,3.022,0,0,1-1.33.73,3.5,3.5,0,0,1,1.648.728,1.62,1.62,0,0,1,.549,1.254,1.748,1.748,0,0,1-.313,1.026,2.36,2.36,0,0,1-1.04.758,4.184,4.184,0,0,1-1.653.311h-2.738l0-6.933a.416.416,0,0,0-.131-.333.575.575,0,0,0-.384-.113h-.422ZM159,117.6h1.471a1.462,1.462,0,0,0,1.08-.4,1.784,1.784,0,0,0,.4-1.307,1.685,1.685,0,0,0-.192-.876,1.11,1.11,0,0,0-.557-.459,3.852,3.852,0,0,0-1.264-.144,1.984,1.984,0,0,0-.788.092.346.346,0,0,0-.152.323Zm0,.394v3a.389.389,0,0,0,.123.315.7.7,0,0,0,.444.106h.941a1.982,1.982,0,0,0,1.382-.413,1.669,1.669,0,0,0,.446-1.285,1.7,1.7,0,0,0-.462-1.259,1.732,1.732,0,0,0-1.277-.46Z" transform="translate(-156.936 -114.032)"/>
  </g>
  <path id="Path_50473" data-name="Path 50473" class="cls-3" d="M112.616,121.513v.365H116.1V121.5h-1.261v-7.282H112.6v.431h1.161V121.5Z" transform="translate(-94.143 -81.127)"/>
  <path id="Path_50474" data-name="Path 50474" class="cls-3" d="M123.6,121.866h1.83v-.392h-.857l-2.945-3.937,2.338-2.935v-.414h-2.079v.414l1.231.048-2.338,2.887,2.57,3.956Z" transform="translate(-99.788 -81.109)"/>
</svg>
