<svg xmlns="http://www.w3.org/2000/svg" width="34.478" height="34.478" viewBox="0 0 34.478 34.478">
    <path fill="#fff" d="M25 9.365a17.242 17.242 0 1 1-12.189 5.05A17.174 17.174 0 0 1 25 9.365zm11.235 6A15.877 15.877 0 1 0 40.893 26.6a15.8 15.8 0 0 0-4.658-11.235z" transform="translate(-7.761 -9.365)"/>
    <path fill="#fff" fill-rule="evenodd" d="M17.22 26.767v7.617h3.627V24.008H17.22zm15.474.429c-.24-1.967-1.137-3.188-3.791-3.188a3.239 3.239 0 0 0-3.045 1.4h-.047v-1.4h-2.893v10.376h3.025v-5.145c0-1.355.268-2.663 1.93-2.663s1.793 1.546 1.793 2.758v5.05h3.112v-5.7a11.912 11.912 0 0 0-.084-1.49zm-13.66-8.371a1.813 1.813 0 1 0 1.813 1.813 1.813 1.813 0 0 0-1.813-1.813z" transform="translate(-7.761 -9.365)"/>
</svg>
