<svg id="Group_588" data-name="Group 588" xmlns="http://www.w3.org/2000/svg" width="40.954" height="31.806" viewBox="0 0 40.954 31.806">
  <defs>
    <style>
      .cls-1 {
        fill: #fff;
      }

      .cls-2 {
        fill: #8b8988;
      }

      .cls-3 {
        fill: #676767;
      }

      .cls-4 {
        fill: #eee;
      }
    </style>
  </defs>
  <path id="Path_528" data-name="Path 528" class="cls-1" d="M27.071,115.69v-2.106a1.246,1.246,0,0,0-1.123-1.334h-.211a1.349,1.349,0,0,0-1.194.6,1.233,1.233,0,0,0-1.123-.6,1.184,1.184,0,0,0-.983.492v-.421H21.7v3.37h.737V113.83c0-.6.316-.878.807-.878s.737.316.737.878v1.861h.737V113.83a.783.783,0,0,1,.667-.878h.14c.492,0,.737.316.737.878v1.861Zm10.953-3.37H36.831V111.3h-.737v1.018h-.667v.667h.667v1.545c0,.772.316,1.229,1.159,1.229a2.086,2.086,0,0,0,.913-.246l-.211-.632a1.315,1.315,0,0,1-.632.176c-.351,0-.492-.211-.492-.562v-1.51h1.194Zm6.249-.07a1,1,0,0,0-.878.492v-.421h-.737v3.37H43.4v-1.882c0-.562.246-.878.7-.878a2.069,2.069,0,0,1,.456.07l.211-.7c-.14,0-.316-.035-.492-.035Zm-9.444.351a2.354,2.354,0,0,0-1.369-.351c-.843,0-1.4.421-1.4,1.088,0,.562.421.878,1.159.983l.351.035c.386.07.6.176.6.351,0,.246-.281.421-.772.421a1.855,1.855,0,0,1-1.123-.351l-.351.562a2.561,2.561,0,0,0,1.439.421c.983,0,1.545-.456,1.545-1.088s-.456-.913-1.159-1.018l-.351-.035c-.316-.035-.562-.105-.562-.316s.246-.386.632-.386a2.249,2.249,0,0,1,1.053.281Zm19.625-.351a1,1,0,0,0-.878.492v-.421H52.84v3.37h.737v-1.882c0-.562.246-.878.7-.878a2.069,2.069,0,0,1,.456.07l.211-.7c-.176,0-.351-.035-.491-.035Zm-9.444,1.755a1.664,1.664,0,0,0,1.57,1.754l.045,0H46.8A1.687,1.687,0,0,0,48,115.374l-.351-.6a1.348,1.348,0,0,1-.878.316.99.99,0,0,1-1.018-.962v-.127a1.053,1.053,0,0,1,.983-1.088h.035a1.348,1.348,0,0,1,.878.316l.351-.6a1.687,1.687,0,0,0-1.194-.386,1.668,1.668,0,0,0-1.788,1.538c0,.014,0,.028,0,.042Zm6.811,0V112.32h-.737v.435a1.316,1.316,0,0,0-1.053-.492,1.755,1.755,0,0,0-1.685,1.823v0a1.755,1.755,0,0,0,1.685,1.685,1.141,1.141,0,0,0,1.053-.492v.421h.737Zm-2.7,0a1.022,1.022,0,1,1,2.03-.235.933.933,0,0,1,.007.094v.14a1.022,1.022,0,0,1-2.036.14Zm-8.812-1.755a1.755,1.755,0,0,0,.035,3.511h0a2.149,2.149,0,0,0,1.369-.456l-.351-.527a1.678,1.678,0,0,1-.983.351.962.962,0,0,1-1.018-.807h2.493v-.281A1.551,1.551,0,0,0,40.307,112.25Zm0,.632a.825.825,0,0,1,.843.807H39.394A.913.913,0,0,1,40.307,112.882Zm18.326,1.123V111H57.9v1.755a1.316,1.316,0,0,0-1.053-.492,1.755,1.755,0,0,0-1.685,1.823v0a1.755,1.755,0,0,0,1.685,1.685,1.141,1.141,0,0,0,1.053-.492v.421h.737Zm-2.7,0a1.022,1.022,0,0,1,2.03-.235c0,.031.006.063.006.094v.14a1.022,1.022,0,0,1-2.036.14Zm-24.68,0V112.32h-.737v.435a1.316,1.316,0,0,0-1.053-.492,1.79,1.79,0,0,0-1.72,1.826,1.755,1.755,0,0,0,1.685,1.685,1.141,1.141,0,0,0,1.053-.492v.421h.737v-1.685Zm-2.773,0a1.022,1.022,0,1,1,2.03-.235.935.935,0,0,1,.007.094v.14a1.022,1.022,0,0,1-2.036.14Z" transform="translate(-19.642 -83.974)"/>
  <rect id="Rectangle_299" data-name="Rectangle 299" class="cls-2" width="11.094" height="19.906" transform="translate(14.939 2.717)"/>
  <path id="Path_529" data-name="Path 529" class="cls-3" d="M31.479,46.8a12.719,12.719,0,0,1,4.81-9.935,12.639,12.639,0,1,0,0,19.871A12.611,12.611,0,0,1,31.479,46.8Z" transform="translate(-15.837 -34.11)"/>
  <path id="Path_530" data-name="Path 530" class="cls-4" d="M94.658,46.708a12.639,12.639,0,0,1-20.468,9.97,12.758,12.758,0,0,0,2.071-17.87,11.591,11.591,0,0,0-2.071-2.071,12.638,12.638,0,0,1,20.468,9.97Z" transform="translate(-53.704 -34.02)"/>
</svg>
