<svg id="Group_200" data-name="Group 200" xmlns="http://www.w3.org/2000/svg" width="60.94" height="30.556" viewBox="0 0 60.94 30.556">
  <defs>
    <style>
      .cls-1 {
        fill: #fff;
      }

      .cls-1, .cls-2, .cls-3 {
        fill-rule: evenodd;
      }

      .cls-2 {
        fill: #a1a1a1;
      }

      .cls-3 {
        fill: #d8d8d8;
      }
    </style>
  </defs>
  <path id="Path_52" data-name="Path 52" class="cls-1" d="M159.857,239.741h-8.062a2.149,2.149,0,0,1-2.142-2.143V213.978a2.149,2.149,0,0,1,2.142-2.142h8.062a2.127,2.127,0,0,1,.282.019v-1.738a.933.933,0,0,1,.93-.93h0a.933.933,0,0,1,.93.93v2.932a.922.922,0,0,1-.076.367,2.108,2.108,0,0,1,.076.564V237.6a2.148,2.148,0,0,1-2.142,2.143Zm-6.37-24.8h4.679a2.714,2.714,0,0,1,2.706,2.706v7.78a2.714,2.714,0,0,1-2.706,2.706h-4.679a2.714,2.714,0,0,1-2.706-2.706v-7.78a2.714,2.714,0,0,1,2.706-2.706Z" transform="translate(-136.152 -209.186)"/>
  <path id="Path_53" data-name="Path 53" class="cls-1" d="M275.828,264.366l5.145-.02c1.875.238,2.742,1.642,2.664,3.684a3.189,3.189,0,0,1-3.259,3.241l-1.868-.037.053,5.647h-2.734V264.366Zm2.763,1.283c1.27-.182,2.245.171,2.311,2.17-.042,1.785-.991,2.237-2.311,2.143v-4.313Z" transform="translate(-248.086 -258.12)"/>
  <path id="Path_54" data-name="Path 54" class="cls-1" d="M362.639,263.03l3.257-.015-.024,1.4-2.552-.011c-1.472.273-1.142,1.844-1.214,2.979l3.432-.064.012,1.716L362.225,269l-.016,4.155a1.668,1.668,0,0,0,1.655,1.682l1.827-.02.557.012-.018,1.3-.571.022-3.472-.037c-1.2-.041-2.163-.634-2.607-2.479l-.085-8.061c.049-1.653,1.14-2.463,3.143-2.537Z" transform="translate(-322.311 -256.94)"/>
  <path id="Path_55" data-name="Path 55" class="cls-1" d="M424.846,266.7c-.206-2.7,1.3-3.31,3.129-3.523,2.141-.127,3.486.766,3.749,3.045l-2.528-.007c-.16-1.149-1.055-1.591-1.872-1.044-1.166,1.427,2.473,3.937,3.564,4.868,1.886,1.492,1.566,5.627-1.339,6.393l-1.772.063c-1.8.042-2.87-1.094-3.18-3.2l2.547-.045c.139.9.523,1.459,1.338,1.419,1.268-.241,1.617-1.358.715-2.783-1.888-1.6-4.125-3.108-4.351-5.186Z" transform="translate(-380.064 -257.077)"/>
  <path id="Path_56" data-name="Path 56" class="cls-1" d="M30.029,259.526h2.677l.028.832c1.618-.7,2.838-1.193,4.116-.042,2.285-1.079,4.013-.956,4.87,1.047L41.84,272.6h-2.7V261.881c-.2-.918-.927-1.075-1.8-1.015V272.6H34.573V261.881c-.2-.918-.927-1.075-1.8-1.015V272.6h-2.74V259.526Z" transform="translate(-30.029 -253.844)"/>
  <path id="Path_57" data-name="Path 57" class="cls-1" d="M501.042,275.074h2.776v-6.906h2.311v6.906h2.692v-9.865c-.054-2.005-1.595-3.262-3.777-3.27-2.49-.022-3.909,1.159-4,3.157v9.978Zm2.776-10.57c.091-.737.331-1.034,1.142-1.113.822.021,1.114.5,1.17,1.226v2h-2.311V264.5Z" transform="translate(-447.881 -255.984)"/>
  <path id="Path_58" data-name="Path 58" class="cls-2" d="M144.181,306.772c.463,1.083,1.093,1.581,1.856,1.611a10.7,10.7,0,0,1-3.821,1.775,12.143,12.143,0,0,1-2.433-.483,6.287,6.287,0,0,0,4.4-2.9Z" transform="translate(-127.396 -295.758)"/>
  <path id="Path_59" data-name="Path 59" class="cls-3" d="M168.423,282.048,174,284.867c-2.842,3.74-7.635,3.838-12.74,3.354a10.055,10.055,0,0,0,7.159-6.173Z" transform="translate(-146.452 -273.824)"/>
</svg>
