<svg xmlns="http://www.w3.org/2000/svg" width="40.983" height="29.974" viewBox="0 0 40.983 29.974">
  <defs>
    <style>
      .cls-1 {
        fill: #fff;
        fill-rule: evenodd;
      }
    </style>
  </defs>
  <path id="Path_50462" data-name="Path 50462" class="cls-1" d="M907.8,499.255a1.833,1.833,0,0,0,1.9,1.9.9.9,0,0,0,.265-.024,1.793,1.793,0,0,0,1.565-2.166,1.559,1.559,0,0,0-1.469-1.469c-.12,0-.264-.024-.385-.024a1.813,1.813,0,0,0-1.878,1.781Zm25.759,19.813a8.423,8.423,0,0,0,1.324-1.613,7.926,7.926,0,0,1-.914,4.43,3.517,3.517,0,0,1-.409.626c-1.444,1.926-4.55,2.7-7.27,2.672a13.766,13.766,0,0,1-4.045-.577,7.837,7.837,0,0,1-1.4-.626c-3.154-1.444-2.889-6.476-2.889-6.476s1.781,4.068,7.968,4.43a9.592,9.592,0,0,0,7.631-2.865Zm0-6.644a2.566,2.566,0,0,0,.506-.048c.65-.1,2.672-.915,2.5-4.021-.144-3.033-1.709-3.876-3.009-3.9h-.072a2.4,2.4,0,0,0-1.252.385,4.034,4.034,0,0,0-1.661,3.708c.024,2.841,1.685,3.707,2.768,3.876Zm0-10.569a6.206,6.206,0,0,1,5.9,5.344c.144,1.035.169,4.357-1.95,6.332A5.555,5.555,0,0,1,933.563,515h-.12a5.765,5.765,0,0,1-4.213-1.83,7.524,7.524,0,0,1-1.685-4.983,6.714,6.714,0,0,1,.963-3.394,5.457,5.457,0,0,1,4.959-2.937Zm0-6.62a2.065,2.065,0,0,0,.385-.024,5.836,5.836,0,0,1,5.3,3.057v2.095s-1.228-2.576-5.344-2.793h-.337a5.945,5.945,0,0,0-5.344,2.576v-1.733c.6-1.155,1.805-3.009,5.344-3.178Zm-32.139,7.078V499.28a2.861,2.861,0,0,0-2.889,2.118v9.919a5.206,5.206,0,0,0,.77,2,3.67,3.67,0,0,0,3.154,1.637c3.13.1,3.659-1.445,3.371-3.154,0,0-3.467,1.926-4.31-.963v-5.922h3.13s1.421-.12,1.156-2.6Zm6.741-.072V511.7s.265,3.057,2.528,3.178,2.985-.939,3.034-2.552a2.274,2.274,0,0,1-1.854-.12,1.588,1.588,0,0,1-.722-1.276v-7.078s-.482-1.733-2.985-1.613Zm17.382,3.371a.278.278,0,0,0,.385-.193,2.855,2.855,0,0,0-2.335-3.3c-3.082-.818-6.717.313-7.969,2.913a9.9,9.9,0,0,0-.963,3.515,6.444,6.444,0,0,0,3.322,6.283,8.524,8.524,0,0,0,5.874.433s2.167-.891,2.191-2.5c.048-1.637.241-3.924-1.156-3.948a16.248,16.248,0,0,0-1.854,0,20.938,20.938,0,0,1,.217,3.009c-.121.361-.891,1.324-3.2.6-2.287-.7-2.6-3.611-2.046-5.465s2.889-2.6,4.357-2.48a9.087,9.087,0,0,1,3.178,1.132Z" transform="translate(-898.535 -495.21)"/>
</svg>
