<svg xmlns="http://www.w3.org/2000/svg" width="117.831" height="117.831" viewBox="0 0 117.831 117.831">
  <defs>
    <style>
      .cls-1 {
        fill: #0080ff;
      }

      .cls-2 {
        fill: #fff;
      }
    </style>
  </defs>
  <g id="Group_3543" data-name="Group 3543" transform="translate(-693.797 -2910.046)">
    <rect id="Rectangle_50" data-name="Rectangle 50" class="cls-1" width="117.831" height="117.831" rx="11" transform="translate(693.797 2910.046)"/>
    <g id="Group_284" data-name="Group 284" transform="translate(717.796 2934.051)">
      <g id="Group_283" data-name="Group 283" transform="translate(0 0)">
        <path id="Path_117" data-name="Path 117" class="cls-2" d="M475.16,504.449a1.412,1.412,0,0,0-1.419,1.417v6.308a6.47,6.47,0,1,0,2.83,0v-6.308A1.406,1.406,0,0,0,475.16,504.449Zm3.633,14.034a3.635,3.635,0,1,1-3.633-3.635h0A3.641,3.641,0,0,1,478.793,518.483Z" transform="translate(-440.151 -454.921)"/>
        <path id="Path_118" data-name="Path 118" class="cls-2" d="M475.16,216.356a1.406,1.406,0,0,0,1.412-1.417v-6.308a6.465,6.465,0,1,0-2.83,0v6.308A1.411,1.411,0,0,0,475.16,216.356Zm-3.637-14.034a3.635,3.635,0,1,1,3.637,3.633h0A3.64,3.64,0,0,1,471.524,202.322Z" transform="translate(-440.151 -195.87)"/>
        <path id="Path_119" data-name="Path 119" class="cls-2" d="M607.181,381.576a6.466,6.466,0,1,0,0-2.832h-6.308a1.416,1.416,0,0,0,0,2.832Zm2.675-1.417a3.633,3.633,0,1,1,3.633,3.635,3.64,3.64,0,0,1-3.633-3.635Z" transform="translate(-549.928 -345.153)"/>
        <path id="Path_120" data-name="Path 120" class="cls-2" d="M290.868,380.159a6.459,6.459,0,0,0,12.762,1.417h6.31a1.416,1.416,0,0,0,0-2.832h-6.31a6.459,6.459,0,0,0-12.762,1.415Zm10.087,0a3.634,3.634,0,1,1-3.635-3.633A3.64,3.64,0,0,1,300.955,380.159Z" transform="translate(-290.868 -345.153)"/>
        <path id="Path_121" data-name="Path 121" class="cls-2" d="M570.783,475.776a1.411,1.411,0,0,0,0,2l4.465,4.462a6.454,6.454,0,0,0,.887,8.013,6.464,6.464,0,1,0,1.117-10.029l-4.466-4.464A1.423,1.423,0,0,0,570.783,475.776Zm7.354,7.354h0a3.653,3.653,0,1,1-1.056,2.576A3.536,3.536,0,0,1,578.137,483.129Z" transform="translate(-525.505 -430.498)"/>
        <path id="Path_122" data-name="Path 122" class="cls-2" d="M354.025,249.9a6.454,6.454,0,1,0-1.114,10.016l4.464,4.464a1.419,1.419,0,0,0,2,0,1.414,1.414,0,0,0,0-2l-4.467-4.464a6.366,6.366,0,0,0,1-3.447A6.286,6.286,0,0,0,354.025,249.9Zm-2,7.124h0a3.612,3.612,0,0,1-2.562,1.059,3.619,3.619,0,1,1,2.562-6.178,3.61,3.61,0,0,1,1.059,2.56A3.53,3.53,0,0,1,352.024,257.024Z" transform="translate(-334.641 -239.643)"/>
        <path id="Path_123" data-name="Path 123" class="cls-2" d="M574.164,254.389a6.413,6.413,0,0,0,1,3.447L570.7,262.3a1.418,1.418,0,0,0,0,2,1.423,1.423,0,0,0,2.008,0l4.478-4.464a6.449,6.449,0,0,0,8.011-.889,6.459,6.459,0,0,0-4.566-11.029,6.467,6.467,0,0,0-6.463,6.467Zm3.9-2.56a3.628,3.628,0,1,1,0,5.134h0a3.613,3.613,0,0,1-1.056-2.56A3.508,3.508,0,0,1,578.066,251.829Z" transform="translate(-525.434 -239.568)"/>
        <path id="Path_124" data-name="Path 124" class="cls-2" d="M359.379,475.784a1.411,1.411,0,0,0-2,0l-4.464,4.466a6.45,6.45,0,1,0,1.114,10.014,6.463,6.463,0,0,0,.887-8.026l4.467-4.464A1.4,1.4,0,0,0,359.379,475.784Zm-7.355,12.475a3.607,3.607,0,0,1-2.561,1.06,3.567,3.567,0,0,1-2.56-1.06,3.621,3.621,0,0,1,5.121-5.121h0A3.622,3.622,0,0,1,352.024,488.259Z" transform="translate(-334.641 -430.506)"/>
        <path id="Path_125" data-name="Path 125" class="cls-2" d="M472.466,352.281h3.274a2.181,2.181,0,0,1,0,4.362h-5.893a1.417,1.417,0,1,0,0,2.833h2.846v2.059a1.415,1.415,0,1,0,2.83,0v-2.059h.23a5.014,5.014,0,1,0,0-10.029h-3.274a2.175,2.175,0,1,1,0-4.349h5.78a1.417,1.417,0,0,0,0-2.833h-2.736v-2.016a1.415,1.415,0,1,0-2.83,0v2.016h-.227a5.008,5.008,0,1,0,0,10.016Z" transform="translate(-439.101 -315.885)"/>
      </g>
    </g>
  </g>
</svg>
