<svg id="Group_486" data-name="Group 486" xmlns="http://www.w3.org/2000/svg" width="46.784" height="25.815" viewBox="0 0 46.784 25.815">
  <defs>
    <style>
      .cls-1 {
        fill: #fff;
        fill-rule: evenodd;
      }
    </style>
  </defs>
  <path id="Path_342" data-name="Path 342" class="cls-1" d="M412.951,261.26l4.139-13.648h3.693l-4.14,13.648Z" transform="translate(-399.575 -247.314)"/>
  <path id="Path_343" data-name="Path 343" class="cls-1" d="M398.641,247.619l-3.323,5.786a14.046,14.046,0,0,0-1.577,3.237h-.051c.059-1.214-.11-2.7-.126-3.545l-.367-5.477H386.98l-.063.367a2.577,2.577,0,0,1,2.8,2.443l1.212,10.834h3.826L402.5,247.62Z" transform="translate(-386.917 -247.317)"/>
  <path id="Path_344" data-name="Path 344" class="cls-1" d="M456.492,261.285l-.1-2.03-4.611,0-.943,2.034h-4.007l7.27-13.622h4.921l1.233,13.622Zm-.424-8.051a31.608,31.608,0,0,1-.007-3.206h-.051c-.224.678-1.19,2.712-1.615,3.714l-1.374,2.991h3.237Z" transform="translate(-416.047 -247.338)"/>
  <path id="Path_345" data-name="Path 345" class="cls-1" d="M430.467,261.365a10.329,10.329,0,0,1-5.573-1.564l1.759-2.688a6.818,6.818,0,0,0,3.984,1.336,1.712,1.712,0,0,0,1.616-.778c.514-.887-.118-1.365-1.561-2.182l-.712-.462c-2.139-1.461-3.064-2.849-2.055-5.272.644-1.55,2.343-2.723,5.146-2.723a8.272,8.272,0,0,1,4.8,1.653l-2.022,2.372a4.5,4.5,0,0,0-2.862-1.255,1.718,1.718,0,0,0-1.576.707c-.385.761.124,1.281,1.248,1.979l.847.539c2.6,1.637,3.215,3.354,2.564,4.96-1.119,2.763-3.311,3.38-5.6,3.38" transform="translate(-405.383 -247.031)"/>
  <path id="Path_346" data-name="Path 346" class="cls-1" d="M393.513,288.757a65.419,65.419,0,0,1,40.7-4.088l.187-4.5c-18.725-2.044-32.162,3.918-40.884,8.145Z" transform="translate(-390.124 -262.942)"/>
  <path id="Path_347" data-name="Path 347" class="cls-1" d="M473.875,249.734h-.243v-1.48h.561c.357,0,.539.125.539.425a.378.378,0,0,1-.351.4h-.034l.414.65h-.275l-.382-.632h-.229Zm.272-.839c.182,0,.343-.018.343-.233,0-.178-.176-.2-.322-.2h-.293v.433Zm-.008,1.411a1.336,1.336,0,1,1,1.308-1.363v.027a1.284,1.284,0,0,1-1.232,1.335h-.076m0-2.441a1.107,1.107,0,1,0,1.019,1.189c0-.028,0-.056,0-.084a1.038,1.038,0,0,0-.97-1.1l-.052,0" transform="translate(-428.664 -247.324)"/>
</svg>
