<svg xmlns="http://www.w3.org/2000/svg" width="34.478" height="34.479" viewBox="0 0 34.478 34.479">
    <path fill="#fff" d="M25 7.761a17.24 17.24 0 1 1-12.19 5.05A17.172 17.172 0 0 1 25 7.761zm11.244 6A15.913 15.913 0 1 0 40.892 25a15.881 15.881 0 0 0-4.648-11.235z" transform="translate(-7.761 -7.761)"/>
    <path fill="#fff" fill-rule="evenodd" d="M26.316 21.478v-1.412a.741.741 0 0 1 .773-.841h1.977v-3.017h-2.721a3.422 3.422 0 0 0-3.7 3.686v1.584h-1.76V25h1.775v8.8h3.522V25h2.6l.115-1.384.211-2.139h-2.8z" transform="translate(-7.761 -7.761)"/>
</svg>
