<svg xmlns="http://www.w3.org/2000/svg" width="117.831" height="117.831" viewBox="0 0 117.831 117.831">
  <defs>
    <style>
      .cls-1 {
        fill: #0080ff;
      }

      .cls-2 {
        fill: #fff;
      }
    </style>
  </defs>
  <g id="Group_3540" data-name="Group 3540" transform="translate(-442 -5153)">
    <rect id="Rectangle_72" data-name="Rectangle 72" class="cls-1" width="117.831" height="117.831" rx="11" transform="translate(442 5153)"/>
    <g id="Group_3492" data-name="Group 3492" transform="translate(168.725 4893.39)">
      <path id="Path_50338" data-name="Path 50338" class="cls-2" d="M337.942,290.274h-25.25v-4.129h25.25v4.129Zm0,12.5a4.024,4.024,0,0,0-1.453.141c-2.358.665-3.436,2.333-2.962,4.578.113.544,4.129,14.666,5.917,20.955-2.478-2.209-5.186-4.3-7.763-3.736a4.188,4.188,0,0,0-1.944,1.043c-.028,0-9.074,0-9.074,0-.014-.205-.474-6.907-.477-6.953-.594-3.849-2.761-4.146-3.411-4.146-2,0-3.231,1-4.083,3.387V292.957h25.25v9.816ZM322.5,332.163l-1.686-.838c.053-1.053,0-2.2-.028-2.888h7.893a6.956,6.956,0,0,0,1.937,3.726Zm.368,5.949-3.093-1.654a15.475,15.475,0,0,0,.756-2.3l3.309,1.644c.3.166.562,1.5-.972,2.312Zm-.283,3.312c-.336.675-.7,1.054-1.11,1.159a2.97,2.97,0,0,1-2.17-.7c.166-.965.332-1.948.491-2.913l2.952,1.58a1.307,1.307,0,0,1-.163.873Zm44.112,6.639-.6-2.121a.688.688,0,0,1-.017-.329c.18-1.117,1.014-7.734.36-10.166-.562-2.114-4.457-15.84-4.457-15.84a4.269,4.269,0,0,0-6.034-3.051l-.544-1.895c-1.358-2.821-4.592-2.662-6.472-1.739a4.435,4.435,0,0,0-5.667-.661l-1.778-6.31a4.632,4.632,0,0,0-.891-1.732V285.888a2.384,2.384,0,0,0-2.361-2.4H312.4a2.387,2.387,0,0,0-2.365,2.4v21.867a1.317,1.317,0,0,0-.6.491c-.5.753-12.294,18.495-12.153,23.114.06,1.881,2.623,7.975,2.641,8.01l3.4,8.424v2.167a1.331,1.331,0,0,0,2.662,0v-2.425a1.277,1.277,0,0,0-.1-.5l-3.51-8.692c-.689-1.615-2.4-6.1-2.436-7.07-.071-2.33,5.507-11.966,10.1-19.1v16.557c-.29.842-.643,1.863-.721,2.065a1.33,1.33,0,0,0,2.347,1.234c.106-.17.965-2.651,1.025-2.839v0c.11-.322.831-3.362.937-3.821a.778.778,0,0,1,.018-.088c.513-2.361.947-4.2,1.29-5.479.675-2.485,1.269-2.485,1.838-2.485.421.039.771.485.785,1.87.032.389.6,12.107.6,12.234-.155,3.347-2.93,18.145-2.958,18.293a1.329,1.329,0,1,0,2.612.492c.05-.237.484-2.567,1.015-5.532a4.786,4.786,0,0,0,3.347.484,4.506,4.506,0,0,0,2.817-2.584,3.786,3.786,0,0,0,.251-2.966s1.842-3.026,1.177-4.913c0,0,6.96,0,6.992,0,.53.551,5.91,5.716,6.628,6.55.516.6,2.365,3.337,3.072,4.093a40.51,40.51,0,0,0,7.016,5.235l.562,2a1.331,1.331,0,0,0,2.563-.718l-.71-2.52a1.33,1.33,0,0,0-.743-.855,41.123,41.123,0,0,1-6.744-4.952c-.576-.619-2.4-3.238-2.906-3.9-.728-.951-3.383-3.5-6.776-6.737-1.5-1.425-3.189-3.04-3.411-3.305-1.043-1.446-.526-2.135.315-2.273,1.863-.311,8.473,5.879,8.473,5.879A1.515,1.515,0,0,0,343,332.9a1.347,1.347,0,0,0,.17-1.1c-.011-.028-7.013-23.662-7.041-24.854-.018-.679-.145-1.131,1.075-1.47.852-.237,1.488.357,1.725,1.195l5.843,20.753a1.329,1.329,0,1,0,2.559-.721l-3.277-11.654c1.251-1.142,2.3-1.011,2.916-.332.127.138,3.256,11.364,3.256,11.364a1.329,1.329,0,1,0,2.559-.721l-2.715-9.654c.389-.629,2.216-1.216,2.888.014l2.937,10.636a1.331,1.331,0,0,0,2.566-.71l-1.852-6.706c.152-.3,2.029-1.4,2.814,1.386,0,0,3.885,13.7,4.447,15.8.428,1.6-.1,7.073-.417,9.056a3.348,3.348,0,0,0,.085,1.474l.594,2.121a1.331,1.331,0,1,0,2.563-.721Z"/>
      <path id="Path_50339" data-name="Path 50339" class="cls-2" d="M430.622,361.389l-3.3.615,3.291-3.514a.941.941,0,0,1,1.5.215,1.876,1.876,0,0,1-1.488,2.683Zm-1.371,11.46h-9.838v-6.26h9.838v6.26Zm-11.548-11.9a.608.608,0,0,1-.4-.862l.845-1.69a.56.56,0,0,1,.9-.141l4.055,4.037-5.4-1.343Zm16.72-3.56a3.6,3.6,0,0,0-5.748-.714l-3.591,3.835-4.154-4.139a3.217,3.217,0,0,0-5.154.834l-.852,1.69a3.266,3.266,0,0,0,2.138,4.634l1.107.378a1.429,1.429,0,0,0-1.439,1.336v8.866a1.506,1.506,0,0,0,1.439,1.424H430.58a1.431,1.431,0,0,0,1.354-1.424v-8.866a1.35,1.35,0,0,0-.841-1.237l.021,0a4.528,4.528,0,0,0,3.308-6.614Z" transform="translate(-99.64 -61.11)"/>
    </g>
  </g>
</svg>
