<svg id="Group_3549" data-name="Group 3549" xmlns="http://www.w3.org/2000/svg" width="48.344" height="30.885" viewBox="0 0 48.344 30.885">
  <defs>
    <style>
      .cls-1 {
        fill: none;
      }

      .cls-2 {
        fill: #d32c35;
      }

      .cls-3 {
        fill: #6d767e;
      }

      .cls-4 {
        fill: #16446a;
      }

      .cls-5 {
        fill: #d1d1d1;
      }

      .cls-6 {
        fill: #fff;
      }

      .cls-7 {
        fill: #0c1e31;
      }
    </style>
  </defs>
  <path id="Path_50437" data-name="Path 50437" class="cls-1" d="M679.651,179.683H668.66l10.925,0Z" transform="translate(-658.823 -179.683)"/>
  <path id="Path_50438" data-name="Path 50438" class="cls-1" d="M620.56,320.543v2.076h2.326A2.253,2.253,0,0,1,620.56,320.543Z" transform="translate(-620.56 -291.735)"/>
  <path id="Path_50439" data-name="Path 50439" class="cls-2" d="M768.541,179.707H763.78l4.734,0Z" transform="translate(-734.49 -179.701)"/>
  <path id="Path_50440" data-name="Path 50440" class="cls-3" d="M631.616,207.582l5.632-24.912c.371-1.63,2.434-2.951,4.075-2.984l-10.925,0c-1.649,0-3.764,1.336-4.141,2.987l-5.632,24.912a3.13,3.13,0,0,0-.065.447v.462a2.253,2.253,0,0,0,2.326,2.076h10.991A2.3,2.3,0,0,1,631.616,207.582Z" transform="translate(-620.56 -179.683)"/>
  <path id="Path_50441" data-name="Path 50441" class="cls-4" d="M730.609,179.688l-8.463,0-.065,0Z" transform="translate(-701.318 -179.683)"/>
  <path id="Path_50442" data-name="Path 50442" class="cls-5" d="M687.615,207.594l5.63-24.912c.371-1.617,2.408-2.929,4.043-2.979l-4.733,0-8.528,0c-1.64.033-3.7,1.354-4.075,2.984l-5.632,24.912a2.305,2.305,0,0,0,2.261,2.985h13.3A2.306,2.306,0,0,1,687.615,207.594Z" transform="translate(-663.265 -179.695)"/>
  <path id="Path_50443" data-name="Path 50443" class="cls-6" d="M760.935,179.716l-11.905,0H749c-1.635.05-3.673,1.362-4.044,2.979l-5.63,24.912a2.306,2.306,0,0,0,2.262,2.985H754.1a3.98,3.98,0,0,0,3.517-2.975l5.63-24.912A2.308,2.308,0,0,0,760.935,179.716Z" transform="translate(-714.976 -179.707)"/>
  <path id="Path_50444" data-name="Path 50444" class="cls-7" d="M719.354,264.489h.207a.377.377,0,0,0,.378-.19l.537-.8h1.439l-.3.529h1.725l-.219.81h-2.053a.961.961,0,0,1-.877.5h-1.069l.232-.848m-.236,1.161H722.9l-.241.88h-1.52l-.232.85h1.479l-.241.88h-1.479l-.344,1.255q-.128.315.334.283h1.205l-.223.818h-2.314q-.658,0-.451-.754l.439-1.6h-.946l.24-.88h.945l.232-.85h-.9Zm6.032-2.161-.059.515a2.771,2.771,0,0,1,1.36-.535h2.393l-.915,3.312q-.114.568-.976.567h-2.712l-.635,2.326c-.037.125.015.189.152.189h.534l-.2.722h-1.357q-.781,0-.651-.471l1.8-6.624Zm2.026.936h-2.136l-.255.894a1.775,1.775,0,0,1,.95-.266c.593-.009,1.269,0,1.269,0ZM726.4,266.5c.158.021.246-.041.257-.189l.131-.471h-2.139l-.179.66Zm-1.443,1.07h1.233l-.023.533h.329c.166,0,.248-.053.248-.158l.1-.345h1.025l-.137.5a.884.884,0,0,1-.921.66h-.657l0,.912c-.012.146.12.221.392.221h.617l-.2.722H725.48c-.415.02-.618-.178-.614-.6Z" transform="translate(-698.362 -246.334)"/>
  <path id="Path_50445" data-name="Path 50445" class="cls-7" d="M769.952,264.479l.286-1.006h1.445l-.062.369a3.635,3.635,0,0,1,1.271-.369h1.788l-.284,1.006h-.281l-1.348,4.746h.281l-.267.942H772.5l-.117.409h-1.4l.117-.409h-2.762l.269-.942h.277l1.35-4.746h-.28m1.56,0-.368,1.284a6.006,6.006,0,0,1,1.172-.31c.12-.449.276-.975.276-.975Zm-.538,1.886-.369,1.345a4.022,4.022,0,0,1,1.176-.373c.138-.52.277-.973.277-.973Zm.271,2.859.277-.976h-1.079l-.278.976Zm3.5-5.814H776.1l.058.5c-.009.128.067.189.228.189h.24l-.243.85h-1c-.381.02-.578-.126-.6-.441Zm-.4,1.822h4.4l-.258.912h-1.4l-.24.848h1.4l-.26.911h-1.559l-.353.534h.763l.176,1.069c.021.107.115.158.276.158h.237l-.249.88h-.839c-.435.021-.66-.125-.678-.439l-.2-.976-.695,1.038a.752.752,0,0,1-.757.409h-1.281l.249-.88h.4a.536.536,0,0,0,.424-.22l1.087-1.572h-1.4l.26-.911h1.52l.242-.848h-1.521Z" transform="translate(-738.114 -246.287)"/>
  <path id="Path_50446" data-name="Path 50446" class="cls-7" d="M654.856,223.188a3.014,3.014,0,0,1-1.156,1.9,3.787,3.787,0,0,1-2.305.66,2.524,2.524,0,0,1-1.948-.677,1.761,1.761,0,0,1-.43-1.221,3.262,3.262,0,0,1,.073-.658l1-4.834h1.514l-.989,4.779a1.538,1.538,0,0,0-.041.366.934.934,0,0,0,.182.6,1.035,1.035,0,0,0,.876.348,1.829,1.829,0,0,0,1.148-.343,1.579,1.579,0,0,0,.58-.973l.992-4.779h1.506l-1,4.834" transform="translate(-643.196 -210.446)"/>
  <path id="Path_50447" data-name="Path 50447" class="cls-7" d="M681.036,232.258H682.1l-.122.623.154-.178a1.664,1.664,0,0,1,1.265-.555,1.157,1.157,0,0,1,.978.394,1.31,1.31,0,0,1,.16,1.093l-.589,2.94h-1.1l.532-2.665a.85.85,0,0,0-.045-.613.518.518,0,0,0-.473-.2,1.027,1.027,0,0,0-.714.263,1.306,1.306,0,0,0-.386.733l-.49,2.479h-1.1l.863-4.317" transform="translate(-667.981 -221.419)"/>
  <path id="Path_50448" data-name="Path 50448" class="cls-7" d="M741,232.258h1.07l-.121.623.152-.178a1.667,1.667,0,0,1,1.265-.555,1.153,1.153,0,0,1,.977.394,1.306,1.306,0,0,1,.16,1.093l-.587,2.94h-1.1l.532-2.665a.855.855,0,0,0-.044-.613.521.521,0,0,0-.473-.2,1.036,1.036,0,0,0-.716.263,1.29,1.29,0,0,0-.384.733l-.493,2.479h-1.1l.862-4.317" transform="translate(-715.68 -221.419)"/>
  <path id="Path_50449" data-name="Path 50449" class="cls-7" d="M705.058,226.578h1.185l-.929,4.314h-1.183l.927-4.314m.373-1.572h1.2l-.223,1.047h-1.2Z" transform="translate(-687.04 -215.737)"/>
  <path id="Path_50450" data-name="Path 50450" class="cls-7" d="M717.769,236.24a1.592,1.592,0,0,1-.468-1.2,2.831,2.831,0,0,1,.017-.293c.012-.11.026-.216.047-.315a2.923,2.923,0,0,1,.9-1.667,2.412,2.412,0,0,1,1.667-.619,1.749,1.749,0,0,1,1.265.447,1.614,1.614,0,0,1,.464,1.217,2.965,2.965,0,0,1-.018.3c-.014.111-.03.217-.049.322a2.845,2.845,0,0,1-.9,1.643,2.429,2.429,0,0,1-1.661.608,1.762,1.762,0,0,1-1.266-.439m2.26-.854a2.1,2.1,0,0,0,.45-1.028c.014-.071.026-.146.033-.22a1.969,1.969,0,0,0,.011-.2.874.874,0,0,0-.2-.618.742.742,0,0,0-.576-.22,1.037,1.037,0,0,0-.806.346,2.17,2.17,0,0,0-.455,1.046c-.013.071-.024.143-.033.213a1.518,1.518,0,0,0-.008.2.858.858,0,0,0,.2.613.752.752,0,0,0,.578.216,1.043,1.043,0,0,0,.806-.342" transform="translate(-697.516 -221.413)"/>
  <path id="Path_50451" data-name="Path 50451" class="cls-7" d="M764.635,219.6h3.107a2.1,2.1,0,0,1,1.377.4,1.438,1.438,0,0,1,.474,1.158v.015c0,.1-.006.2-.015.321s-.035.233-.061.354a2.731,2.731,0,0,1-.945,1.607,2.672,2.672,0,0,1-1.748.608h-1.666l-.515,2.528H763.2l1.435-6.992m.777,3.248h1.381a1.339,1.339,0,0,0,.854-.249,1.3,1.3,0,0,0,.419-.769c.012-.064.02-.121.029-.175s.01-.1.01-.149a.592.592,0,0,0-.265-.54,1.577,1.577,0,0,0-.836-.169h-1.174Z" transform="translate(-734.028 -211.439)"/>
  <path id="Path_50452" data-name="Path 50452" class="cls-7" d="M813.873,237.842a6.791,6.791,0,0,1-1.146,1.8,2.32,2.32,0,0,1-1.981.819l.1-.74c1.026-.316,1.581-1.741,1.9-2.371l-.377-4.645.794-.01h.666l.072,2.914,1.248-2.914h1.263l-2.54,5.15" transform="translate(-771.85 -221.851)"/>
  <path id="Path_50453" data-name="Path 50453" class="cls-7" d="M794.668,233.97l-.5.345a1.577,1.577,0,0,0-1.927-.236c-1.259.584-2.311,5.06,1.155,3.586l.2.234,1.364.035.9-4.068-1.182.1m-.775,2.224c-.219.646-.708,1.073-1.091.952s-.52-.742-.3-1.389.711-1.073,1.091-.952.521.742.3,1.389" transform="translate(-756.179 -222.778)"/>
</svg>
