<svg xmlns="http://www.w3.org/2000/svg" width="34.478" height="34.488" viewBox="0 0 34.478 34.488">
    <path fill="#fff" d="M25 7.756a17.242 17.242 0 1 1-12.189 5.05A17.212 17.212 0 0 1 25 7.756zm11.234 6a15.89 15.89 0 1 0 4.658 11.245 15.831 15.831 0 0 0-4.658-11.241z" transform="translate(-7.761 -7.756)"/>
    <path fill="#fff" fill-rule="evenodd" d="M33.8 19.631a7.728 7.728 0 0 1-2.071.563 3.56 3.56 0 0 0 1.6-1.976 7.361 7.361 0 0 1-2.3.868 3.627 3.627 0 0 0-6.253 2.425 3.727 3.727 0 0 0 .1.812 10.251 10.251 0 0 1-7.446-3.713 3.507 3.507 0 0 0 1.108 4.744 3.5 3.5 0 0 1-1.631-.439v.048a3.376 3.376 0 0 0 .247 1.279 3.6 3.6 0 0 0 2.654 2.2 3.539 3.539 0 0 1-.954.133 3.27 3.27 0 0 1-.679-.076 3.643 3.643 0 0 0 3.37 2.482 7.311 7.311 0 0 1-4.477 1.519c-.3 0-.573-.02-.869-.049a10.413 10.413 0 0 0 5.537 1.6 10.045 10.045 0 0 0 10.031-7.971A9.807 9.807 0 0 0 32 21.934v-.459a7.505 7.505 0 0 0 1.8-1.844z" transform="translate(-7.761 -7.756)"/>
</svg>
