<svg id="Group_202" data-name="Group 202" xmlns="http://www.w3.org/2000/svg" width="36.506" height="36.508" viewBox="0 0 36.506 36.508">
  <defs>
    <style>
      .cls-1 {
        fill: #fff;
      }

      .cls-2 {
        fill: #0c1e31;
      }
    </style>
  </defs>
  <path id="Path_60" data-name="Path 60" class="cls-1" d="M32.281,39.508H9.745A6.985,6.985,0,0,1,2.76,32.523V9.985A6.984,6.984,0,0,1,9.745,3H32.281a6.985,6.985,0,0,1,6.985,6.985V32.521a6.986,6.986,0,0,1-6.985,6.987" transform="translate(-2.76 -3)"/>
  <g id="Group_201" data-name="Group 201" transform="translate(7.509 5.815)">
    <g id="g20">
      <g id="g4575">
        <g id="g4557" transform="translate(5.362)">
          <path id="path4" class="cls-2" d="M78.129,34.079a1.177,1.177,0,0,1-.218.027,7.27,7.27,0,0,0-1.677.421c-.033.015-.125.054-.209.086a8.067,8.067,0,0,0-.883.424.563.563,0,0,1-.155.072c-.045.012-.081.033-.081.045s-.024.03-.051.042a.8.8,0,0,0-.143.078,1.275,1.275,0,0,1-.158.089.87.87,0,0,0-.167.1.518.518,0,0,1-.116.075,10.668,10.668,0,0,0-1.3.943,5.527,5.527,0,0,0-.63.671.3.3,0,0,1-.063.089,5.392,5.392,0,0,0-.436.683c-.033.075-.1.206-.14.3a2.032,2.032,0,0,0-.191,1,1.071,1.071,0,0,0,.355.824,1.371,1.371,0,0,0,1,.406,2.357,2.357,0,0,0,.836-.1c.1-.027.23-.06.292-.078a.734.734,0,0,0,.164-.057c.069-.036.454-.209.471-.209a11.725,11.725,0,0,0,1.265-.773c.385-.257.722-.48.752-.5s.209-.125.4-.242.433-.251.531-.3l.313-.164c.075-.036.215-.1.313-.137s.221-.089.268-.11.122-.054.164-.072a2.525,2.525,0,0,1,.636-.113,1.054,1.054,0,0,1,1.143.722,1.493,1.493,0,0,1,.057.582,2.233,2.233,0,0,1-.155.955l-.075.179a6.857,6.857,0,0,1-.809,1.337,11.512,11.512,0,0,1-1.528,1.581c-.164.137-.346.286-.4.334a5.05,5.05,0,0,1-.433.316c-.066.042-.173.113-.239.161a8.016,8.016,0,0,1-.955.507l-.245.107a.455.455,0,0,1-.152.042.646.646,0,0,0-.152.033.285.285,0,0,1-.391-.263c0-.245.116-.4.85-1.128.794-.788.88-.9.88-1.2a.723.723,0,0,0-.474-.683.745.745,0,0,0-.448-.083,1.144,1.144,0,0,0-.674.17c-.048.03-.122.069-.164.089a.519.519,0,0,0-.089.054c-.009.009-.069.054-.134.1a4,4,0,0,0-.594.609,4.146,4.146,0,0,0-.379.63,3.046,3.046,0,0,0-.3,1.152,1.273,1.273,0,0,0,.85,1.3,3.9,3.9,0,0,0,1.006,0,5.676,5.676,0,0,0,.812-.251.124.124,0,0,1,.072-.027,9.152,9.152,0,0,0,1.268-.648c.069-.045.146-.1.176-.113s.167-.1.313-.191.268-.173.277-.182a2.62,2.62,0,0,1,.224-.164l.3-.206c.051-.036.191-.143.313-.242a11.923,11.923,0,0,0,1.862-1.79c.066-.081.125-.155.134-.164s.227-.31.367-.531a3.887,3.887,0,0,0,.212-.364l.173-.328c.039-.075.122-.268.188-.433s.125-.325.137-.358a6.86,6.86,0,0,0,.268-1.149,4.416,4.416,0,0,0-.107-1.567,2.568,2.568,0,0,0-.173-.433,3.268,3.268,0,0,0-1.059-1.283,1.58,1.58,0,0,1-.167-.131,4.2,4.2,0,0,0-.973-.433,4.874,4.874,0,0,0-.564-.125A6.5,6.5,0,0,0,78.129,34.079Z" transform="translate(-71.508 -34.061)"/>
        </g>
        <g id="g4554" transform="translate(0 14.104)">
          <g id="g4539" transform="translate(19.42 0.66)">
            <path id="path8" class="cls-2" d="M147.8,112.929c-.009.006-.146.033-.31.06s-.433.069-.6.1l-.3.051v2.745c0,2.981-.006,2.856.17,3.229a1.09,1.09,0,0,0,.271.355,1.583,1.583,0,0,0,1.241.382c.537,0,.516.021.5-.474l-.009-.358-.23-.021c-.409-.036-.606-.2-.651-.54-.012-.1-.021-1.379-.018-2.835C147.878,113.1,147.872,112.858,147.8,112.929Z" transform="translate(-146.595 -112.919)"/>
          </g>
          <g id="g4533" transform="translate(11.442 0.685)">
            <path id="path10" class="cls-2" d="M104.908,113.1a3.9,3.9,0,0,0-.91.173c-.021.024-.024.976-.015,2.8a18.856,18.856,0,0,0,.069,2.894,1.29,1.29,0,0,0,.325.543,1.764,1.764,0,0,0,1.37.442c.364,0,.415-.006.439-.054a2.91,2.91,0,0,0,.021-.7c-.018-.075-.03-.078-.254-.1a.619.619,0,0,1-.567-.319l-.083-.134V117.1a11.765,11.765,0,0,1,.026-1.59c.027-.033.128-.042.448-.042.492,0,.451.048.439-.522l-.009-.388-.418-.015a2.9,2.9,0,0,1-.454-.039c-.03-.018-.039-.2,0-.74v-.713l-.1,0C105.192,113.06,105.049,113.078,104.908,113.1Z" transform="translate(-103.978 -113.054)"/>
          </g>
          <g id="g4527" transform="translate(0 2.067)">
            <path id="path12" class="cls-2" d="M44.889,120.444a4.792,4.792,0,0,0-.925.221,1.16,1.16,0,0,1-.134.048,2.471,2.471,0,0,0-.567.283.965.965,0,0,0,.057.155,3.919,3.919,0,0,0,.286.588.276.276,0,0,0,.069-.027,3.236,3.236,0,0,1,.483-.2c.089-.027.2-.063.239-.078a2.374,2.374,0,0,1,.818-.057c.406.066.555.254.579.734.012.266.012.271-.057.289a5.359,5.359,0,0,1-.609.021,2.513,2.513,0,0,0-1.387.266,1.617,1.617,0,0,0-.827,1.018,2.023,2.023,0,0,0,.018.955,1.881,1.881,0,0,0,1.8,1.334,3.306,3.306,0,0,0,2.175-.627l.194-.158.009-1.578c.009-1.829.006-1.892-.215-2.339a1.7,1.7,0,0,0-.636-.615c-.1-.045-.2-.089-.233-.1A3.021,3.021,0,0,0,44.889,120.444Zm.888,2.886a5.708,5.708,0,0,1,.03.809c0,.848.012.794-.209.91a1.007,1.007,0,0,1-.465.057h-.361l-.149-.1a.9.9,0,0,1-.209-.194,1.11,1.11,0,0,1,.027-1.182,1.227,1.227,0,0,1,.379-.268.138.138,0,0,0,.081-.027c.042-.045.179-.057.528-.051C45.679,123.286,45.757,123.295,45.777,123.33Z" transform="translate(-42.865 -120.435)"/>
          </g>
          <g id="g4530" transform="translate(7.813 2.092)">
            <path id="path14" class="cls-2" d="M86.236,120.622a3.232,3.232,0,0,0-1.517.83l-.123.113v4.407c0,.048.044.051.639.045h.644v-2.09l.006-2.076.111-.089a.975.975,0,0,1,.366-.2,1.966,1.966,0,0,1,.756-.075,1.061,1.061,0,0,0,.246.009.665.665,0,0,0,.12-.227c.044-.119.114-.274.149-.346.1-.188.088-.236-.041-.266l-.252-.06A3.551,3.551,0,0,0,86.236,120.622Z" transform="translate(-84.596 -120.565)"/>
          </g>
          <g id="g4536" transform="translate(14.232 2.116)">
            <path id="path16" class="cls-2" d="M120.619,120.726a.636.636,0,0,0-.206.057.124.124,0,0,1-.072.027,1.02,1.02,0,0,0-.236.1,2.263,2.263,0,0,0-.731.68,3.061,3.061,0,0,0-.307.642,1.125,1.125,0,0,1-.045.149c-.012.033-.048.161-.078.283a5.817,5.817,0,0,0,0,1.656,2.981,2.981,0,0,0,.263.7.03.03,0,0,1,.027.033,2.216,2.216,0,0,0,.606.767,2.149,2.149,0,0,0,.543.28,3.6,3.6,0,0,0,.839.143,3.751,3.751,0,0,0,1.441-.343,1.015,1.015,0,0,1,.182-.089.94.94,0,0,0,.31-.191,2.6,2.6,0,0,0-.352-.719.282.282,0,0,0-.116.06.267.267,0,0,1-.116.06.22.22,0,0,0-.1.042,2.832,2.832,0,0,1-.343.137,1.57,1.57,0,0,1-.7.1c-.37,0-.433-.006-.552-.063a1.433,1.433,0,0,1-.656-1.384,1.941,1.941,0,0,1,.009-.271c0-.006.665-.015,1.468-.024l1.462-.015-.009-.3a4.221,4.221,0,0,0-.307-1.552c-.012-.018-.054-.092-.092-.167a1.572,1.572,0,0,0-.9-.728A2.985,2.985,0,0,0,120.619,120.726Zm.642.949c.125.033.388.245.388.31a.4.4,0,0,0,.045.116,1.275,1.275,0,0,1,.075.633c-.03.039-.146.045-.749.045h-.713l-.018-.075a1.239,1.239,0,0,1,.185-.719.759.759,0,0,1,.421-.316.749.749,0,0,1,.209-.039C121.121,121.637,121.192,121.657,121.261,121.675Z" transform="translate(-118.884 -120.694)"/>
          </g>
          <g id="g4524" transform="translate(5.187)">
            <path id="path6" class="cls-2" d="M71.061,109.446a.833.833,0,0,0-.394.319c-.1.146-.1.158-.1.462v.316l.113.155a.743.743,0,0,0,.421.316.832.832,0,0,0,.761-.113.888.888,0,0,0,.236-1.1.693.693,0,0,0-.307-.31A.974.974,0,0,0,71.061,109.446Z" transform="translate(-70.569 -109.393)"/>
            <path id="path18" class="cls-2" d="M72.544,121.089a2.335,2.335,0,0,1-.3.057c-.113.015-.322.045-.462.066a1.582,1.582,0,0,0-.277.054c-.027.024-.03,5.094-.006,5.138a3.751,3.751,0,0,0,.627.027c.609,0,.612,0,.627-.069.009-.036.012-1.241.009-2.677-.009-2.587-.009-2.611-.069-2.617A.5.5,0,0,0,72.544,121.089Z" transform="translate(-71.313 -118.882)"/>
          </g>
        </g>
      </g>
    </g>
  </g>
</svg>
