<svg id="Group_3548" data-name="Group 3548" xmlns="http://www.w3.org/2000/svg" width="52.132" height="23.582" viewBox="0 0 52.132 23.582">
  <defs>
    <style>
      .cls-1 {
        fill: #fff;
      }
    </style>
  </defs>
  <g id="Group_3547" data-name="Group 3547" transform="translate(0 19.944)">
    <g id="Group_3543" data-name="Group 3543" transform="translate(0 0.055)">
      <path id="Path_50414" data-name="Path 50414" class="cls-1" d="M376.413,182.079l-.378,1.983a2.462,2.462,0,0,0-.039.422.579.579,0,0,0,.621.646c.457,0,.8-.308.935-1.059l.383-1.993h.412l-.382,2c-.194,1-.691,1.4-1.4,1.4a.9.9,0,0,1-.979-.989,2.536,2.536,0,0,1,.044-.462l.373-1.953Z" transform="translate(-375.583 -181.9)"/>
      <path id="Path_50415" data-name="Path 50415" class="cls-1" d="M384.895,187.044l.323-1.7c.055-.268.085-.5.115-.7h.367l-.059.472h.01a1.052,1.052,0,0,1,.89-.527.592.592,0,0,1,.612.671,2.324,2.324,0,0,1-.045.388l-.268,1.4h-.412l.263-1.387a1.553,1.553,0,0,0,.035-.308c0-.244-.094-.423-.377-.423a1.059,1.059,0,0,0-.82.95l-.219,1.168Z" transform="translate(-381.588 -183.515)"/>
      <path id="Path_50416" data-name="Path 50416" class="cls-1" d="M393.619,185.419l.462-2.405h.412l-.462,2.405Zm.537-3.076a.273.273,0,0,1,.273-.278.239.239,0,0,1,.244.258.272.272,0,0,1-.278.278A.238.238,0,0,1,394.156,182.343Z" transform="translate(-387.214 -181.891)"/>
      <path id="Path_50417" data-name="Path 50417" class="cls-1" d="M399.417,182.918l-.124.646h.576l-.064.323h-.577l-.223,1.168a2.112,2.112,0,0,0-.045.388.2.2,0,0,0,.228.228,1.137,1.137,0,0,0,.194-.015l-.02.323a.961.961,0,0,1-.319.045.447.447,0,0,1-.507-.467,2.214,2.214,0,0,1,.05-.452l.238-1.218h-.348l.064-.323h.343l.1-.542Z" transform="translate(-390.348 -182.441)"/>
      <path id="Path_50418" data-name="Path 50418" class="cls-1" d="M405.452,186.9a1.655,1.655,0,0,1-.8.189.866.866,0,0,1-.914-.964,1.49,1.49,0,0,1,1.312-1.545.625.625,0,0,1,.706.616c0,.631-.711.8-1.6.785a.994.994,0,0,0,.05.457.546.546,0,0,0,.536.323,1.343,1.343,0,0,0,.646-.169Zm-.457-2c-.393,0-.686.383-.785.761.646,0,1.153-.08,1.153-.452C405.362,185.017,405.214,184.907,404.994,184.907Z" transform="translate(-393.742 -183.515)"/>
      <path id="Path_50419" data-name="Path 50419" class="cls-1" d="M413.872,181.575l-.527,2.768a6,6,0,0,0-.1.76h-.378l.064-.477h-.01a1.027,1.027,0,0,1-.865.532c-.467,0-.721-.382-.721-.875a1.581,1.581,0,0,1,1.486-1.64,1.09,1.09,0,0,1,.427.084l.213-1.153Zm-.691,1.5a.747.747,0,0,0-.4-.1,1.181,1.181,0,0,0-1.024,1.252c0,.288.1.592.452.592.318,0,.7-.363.8-.9Z" transform="translate(-398.638 -181.575)"/>
    </g>
    <g id="Group_3544" data-name="Group 3544" transform="translate(17.111 0.055)">
      <path id="Path_50420" data-name="Path 50420" class="cls-1" d="M424.389,182.078a3.738,3.738,0,0,1,.721-.07,1.109,1.109,0,0,1,.771.234.65.65,0,0,1,.243.522.909.909,0,0,1-.725.835v.01a.74.74,0,0,1,.551.746.969.969,0,0,1-.4.775,1.773,1.773,0,0,1-1.083.273,4.184,4.184,0,0,1-.7-.045Zm-.159,2.972a2.551,2.551,0,0,0,.343.02c.487,0,.944-.2.944-.736,0-.392-.333-.566-.711-.566h-.333Zm.308-1.6h.308c.477,0,.85-.248.85-.656,0-.323-.244-.462-.607-.462a1.336,1.336,0,0,0-.343.035Z" transform="translate(-423.768 -181.854)"/>
      <path id="Path_50421" data-name="Path 50421" class="cls-1" d="M433.861,187.044a6.233,6.233,0,0,1,.055-.621h-.01a1.053,1.053,0,0,1-.934.676.713.713,0,0,1-.691-.8,1.68,1.68,0,0,1,1.665-1.719,2.235,2.235,0,0,1,.646.094l-.244,1.252a5.461,5.461,0,0,0-.1,1.113Zm.268-2.1a1.13,1.13,0,0,0-.288-.035,1.284,1.284,0,0,0-1.133,1.317c0,.268.094.532.412.532.343,0,.751-.447.87-1.088Z" transform="translate(-429.258 -183.515)"/>
      <path id="Path_50422" data-name="Path 50422" class="cls-1" d="M440.809,187.044l.323-1.7c.054-.268.084-.5.114-.7h.367l-.059.472h.01a1.052,1.052,0,0,1,.89-.527.592.592,0,0,1,.612.671,2.364,2.364,0,0,1-.045.388l-.268,1.4h-.413l.263-1.387a1.528,1.528,0,0,0,.035-.308c0-.244-.094-.423-.378-.423a1.059,1.059,0,0,0-.82.95l-.219,1.168Z" transform="translate(-434.758 -183.515)"/>
      <path id="Path_50423" data-name="Path 50423" class="cls-1" d="M449.547,185.1l.666-3.528h.412l-.423,2.212h.01c.075-.085.164-.174.223-.244l.85-.845h.507l-1.049.989.721,1.416h-.457l-.577-1.187-.3.273-.174.914Z" transform="translate(-440.393 -181.575)"/>
    </g>
    <g id="Group_3545" data-name="Group 3545" transform="translate(30.393 0)">
      <path id="Path_50424" data-name="Path 50424" class="cls-1" d="M461.17,185l.392-2.082h-.318l.06-.323h.323l.025-.124a1.4,1.4,0,0,1,.393-.84.847.847,0,0,1,.571-.214.657.657,0,0,1,.328.065l-.089.328a.6.6,0,0,0-.244-.045c-.328,0-.487.318-.556.716l-.02.114h.537l-.065.323h-.532l-.4,2.082Z" transform="translate(-461.17 -181.42)"/>
      <path id="Path_50425" data-name="Path 50425" class="cls-1" d="M468.594,185.588a1.441,1.441,0,0,1-1.332,1.511.918.918,0,0,1-.939-.989,1.441,1.441,0,0,1,1.332-1.526A.917.917,0,0,1,468.594,185.588Zm-1.844.507c0,.393.214.676.567.676.487,0,.854-.626.854-1.188a.6.6,0,0,0-.561-.671C467.093,184.912,466.746,185.543,466.75,186.095Z" transform="translate(-464.493 -183.46)"/>
      <path id="Path_50426" data-name="Path 50426" class="cls-1" d="M474.8,187.044l.293-1.55c.06-.313.1-.631.125-.855h.363c-.02.169-.039.338-.064.522h.015a.87.87,0,0,1,.735-.576.8.8,0,0,1,.114.01L476.3,185a.586.586,0,0,0-.109-.01c-.358,0-.676.433-.781.994l-.2,1.059Z" transform="translate(-469.957 -183.46)"/>
    </g>
    <g id="Group_3546" data-name="Group 3546" transform="translate(38.339 0)">
      <path id="Path_50427" data-name="Path 50427" class="cls-1" d="M484.516,184.37l-.532,1.059h-.437l1.735-3.349h.487l.462,3.349h-.423l-.134-1.059Zm1.124-.328-.13-.969c-.02-.174-.044-.417-.059-.616h-.01c-.089.2-.174.408-.274.612l-.5.974Z" transform="translate(-483.547 -181.845)"/>
      <path id="Path_50428" data-name="Path 50428" class="cls-1" d="M493.628,185l.392-2.082H493.7l.06-.323h.323l.025-.124a1.4,1.4,0,0,1,.393-.84.849.849,0,0,1,.571-.214.655.655,0,0,1,.328.065l-.089.328a.6.6,0,0,0-.244-.045c-.328,0-.487.318-.557.716l-.02.114h.537l-.065.323h-.532l-.4,2.082Z" transform="translate(-490.048 -181.42)"/>
      <path id="Path_50429" data-name="Path 50429" class="cls-1" d="M498.684,187.044l.293-1.55c.06-.313.1-.631.124-.855h.363c-.02.169-.04.338-.065.522h.015a.87.87,0,0,1,.736-.576.81.81,0,0,1,.114.01l-.08.407a.588.588,0,0,0-.109-.01c-.358,0-.676.433-.781.994l-.2,1.059Z" transform="translate(-493.309 -183.46)"/>
      <path id="Path_50430" data-name="Path 50430" class="cls-1" d="M504.4,185.419l.462-2.405h.412l-.462,2.405Zm.537-3.076a.274.274,0,0,1,.274-.278.239.239,0,0,1,.244.258.272.272,0,0,1-.278.278A.238.238,0,0,1,504.934,182.343Z" transform="translate(-496.993 -181.836)"/>
      <path id="Path_50431" data-name="Path 50431" class="cls-1" d="M510.581,186.958a1.656,1.656,0,0,1-.7.144.864.864,0,0,1-.924-.929,1.523,1.523,0,0,1,1.471-1.575,1.22,1.22,0,0,1,.5.1l-.119.328a.943.943,0,0,0-.408-.089,1.12,1.12,0,0,0-1.019,1.183.567.567,0,0,0,.6.641,1.265,1.265,0,0,0,.556-.134Z" transform="translate(-499.936 -183.469)"/>
      <path id="Path_50432" data-name="Path 50432" class="cls-1" d="M517.46,187.044c0-.144.025-.373.054-.621h-.01a1.052,1.052,0,0,1-.934.676.712.712,0,0,1-.691-.8,1.68,1.68,0,0,1,1.665-1.719,2.229,2.229,0,0,1,.646.094l-.243,1.252a5.442,5.442,0,0,0-.1,1.113Zm.268-2.1a1.125,1.125,0,0,0-.288-.035,1.283,1.283,0,0,0-1.133,1.317c0,.268.094.532.412.532.343,0,.751-.447.87-1.088Z" transform="translate(-504.398 -183.46)"/>
    </g>
  </g>
  <path id="Path_50433" data-name="Path 50433" class="cls-1" d="M388.678,141.861l-1.519,7.1a3.23,3.23,0,0,1-3.082,2.68q-2.3.023-1.742-3.171.671-3.306,1.34-6.611h-2.233l-1.564,7.549c-.268,2.9,1.429,3.745,4.02,3.663a5.315,5.315,0,0,0,5.137-3.439l1.7-7.772h-2.055" transform="translate(-378.335 -135.965)"/>
  <path id="Path_50434" data-name="Path 50434" class="cls-1" d="M445.379,145.434l.893,3.663h-3.305Zm.67-3.573-7.5,10.988h2.009l1.43-2.143h4.69l.446,2.143h2.413l-2.68-10.988h-.8" transform="translate(-416.186 -135.965)"/>
  <path id="Path_50435" data-name="Path 50435" class="cls-1" d="M480.283,142.187h4.288c3.867-.167,4.693-1.962,3.439-4.869l-4.69-9.2-3.037,14.07m10.549-16.929c-3.867.168-4.694,1.962-3.439,4.869l4.69,9.2,3.038-14.07h-4.288" transform="translate(-443.103 -125.258)"/>
  <path id="Path_50436" data-name="Path 50436" class="cls-1" d="M414.264,151.416l.772-3.695h.9c1.306,0,2.428.451,2.428,1.655,0,1.5-1.472,2.089-3.072,2.089a6.791,6.791,0,0,1-1.031-.05m1.725-8.175h1.054c1.177,0,1.889.284,1.889,1.2,0,1.153-1.08,1.839-2.68,1.839h-.9l.637-3.043m-1.732-1.423c-.065.012-.131.023-.194.036l-2.282,10.983.03,0h4.333a5.031,5.031,0,0,0,2.884-.757,3.885,3.885,0,0,0,1.727-2.68,2.053,2.053,0,0,0-2.1-2.485h-.018a3.128,3.128,0,0,0,2.575-2.725c.162-2.376-2.488-2.376-2.488-2.376h-4.473" transform="translate(-398.927 -135.937)"/>
</svg>
