<svg xmlns="http://www.w3.org/2000/svg" width="180.389" height="97.809" viewBox="0 0 180.389 97.809"><defs><style>.a{fill:#172753;}.b{fill:#fdbe10;}</style></defs><g transform="translate(0 0)"><path class="a" d="M91.44,101.2a48.9,48.9,0,1,0,48.9,48.9,48.953,48.953,0,0,0-48.9-48.9M46.01,151.669a1.567,1.567,0,1,1,1.563-1.57,1.537,1.537,0,0,1-1.563,1.57m45.43,40.062A41.629,41.629,0,1,1,133.071,150.1,41.7,41.7,0,0,1,91.44,191.731m45.542-40.062a1.567,1.567,0,1,1,1.572-1.57,1.53,1.53,0,0,1-1.572,1.57" transform="translate(-42.538 -101.196)"/><path class="a" d="M79.958,128.915v6.154H72.683V159.8H65.632V135.07H58.248v-6.154Z" transform="translate(-40.233 -97.129)"/><path class="a" d="M87.244,138.671c-6.492,0-11.529,4.251-11.529,10.186s4.7,10.183,11.529,10.183c6.6,0,11.416-4.254,11.416-10.183s-5.041-10.186-11.416-10.186m0,14.664a4.286,4.286,0,0,1-4.478-4.148v-.33a4.476,4.476,0,1,1,8.952,0,4.35,4.35,0,0,1-4.143,4.478Z" transform="translate(-37.67 -95.697)"/><path class="a" d="M113.639,152.409c0,5.591-5.153,6.6-9.067,6.6a11.575,11.575,0,0,1-7.385-2.58l2.681-4.469s2.688,2.233,4.815,2.233c.893,0,2.015-.115,2.015-1.336s-2.126-1.464-4.253-2.578c-1.9-1-3.916-2.347-3.916-5.259,0-3.915,3.356-6.158,8.391-6.158a16.136,16.136,0,0,1,6.49,1.461l-2.12,4.358a11.69,11.69,0,0,0-4.258-1.228c-1.455,0-2.011.226-2.011,1.117s1.341,1.344,3.018,1.794c2.24.67,5.6,2.126,5.6,6.043" transform="translate(-34.519 -95.669)"/></g><path class="b" d="M149.184,128.915h-11.3V159.8h7.05V148.384h4.254c6.04,0,10.516-3.58,10.516-9.957s-4.476-9.512-10.516-9.512m-2.241,13.877H144.93v-8.173h1.9c2.793,0,5.368.893,5.368,4.141s-2.459,4.032-5.257,4.032" transform="translate(-28.549 -97.129)"/><path class="b" d="M172.976,139.236v1.788a8.586,8.586,0,0,0-6.26-2.352c-5.6,0-9.512,4.587-9.512,10.186s3.91,10.183,9.512,10.183a8.7,8.7,0,0,0,6.26-2.687h.114v2.126h6.6V139.236Zm-4.358,14.1a4.284,4.284,0,0,1-4.479-4.148v-.33a4.475,4.475,0,1,1,8.95,0,4.354,4.354,0,0,1-4.142,4.478Z" transform="translate(-25.713 -95.699)"/><path class="b" d="M203.067,139.163l-14.995,28.868h-7.718l6.713-12.645-9.181-16.223H185.5l5.37,9.845,4.588-9.845Z" transform="translate(-22.679 -95.625)"/></svg>