<svg xmlns="http://www.w3.org/2000/svg" width="114" height="113" viewBox="0 0 114 113">
  <defs>
    <style>
      .cls-1 {
        fill: #0080ff;
      }

      .cls-2 {
        fill: #fff;
      }
    </style>
  </defs>
  <g id="Group_3301" data-name="Group 3301" transform="translate(-1369 -4731)">
    <rect id="Rectangle_69" data-name="Rectangle 69" class="cls-1" width="114" height="113" rx="11" transform="translate(1369 4731)"/>
    <g id="Group_3491" data-name="Group 3491" transform="translate(1008.734 4471.635)">
      <path id="Path_50336" data-name="Path 50336" class="cls-2" d="M450.571,308.872a36.74,36.74,0,0,1-9.437-2.385V283.372a3.786,3.786,0,0,0-3.782-3.78H397.045a3.784,3.784,0,0,0-3.78,3.78V348.4a3.784,3.784,0,0,0,3.78,3.78h40.306a3.786,3.786,0,0,0,3.782-3.78v-14.85c9.079-8.429,10.509-22.67,10.567-23.275l.117-1.247Zm-13.22,40.721H397.045a1.192,1.192,0,0,1-1.189-1.191v-3.984h42.685V348.4A1.192,1.192,0,0,1,437.351,349.594Zm1.191-44.331a16.335,16.335,0,0,1-3.777-2.656l-.957-1.065-.964,1.061c-.044.048-4.583,4.874-15.8,6.269l-1.271.163.145,1.269c.095.857,2.515,21.089,17.37,27.641l.5.222.508-.208a22.45,22.45,0,0,0,4.246-2.315v6.184H395.856V291.192h42.685Zm-19.865,6c8.562-1.306,13.253-4.459,15.128-6.025,1.879,1.569,6.579,4.722,15.15,6.028-.629,4.044-3.7,18.994-15.132,24.08C422.718,330.055,419.389,315.279,418.676,311.262Zm-21.631-29.077h40.306a1.191,1.191,0,0,1,1.191,1.187V288.6H395.856v-5.231A1.191,1.191,0,0,1,397.045,282.185Z"/>
      <path id="Path_50337" data-name="Path 50337" class="cls-2" d="M565.055,462.689c5.429-3.621,8.181-10.172,9.536-15.032l.349-1.254-1.258-.345a35.291,35.291,0,0,1-8.768-3.635l-.662-.393-.662.393a35,35,0,0,1-8.657,3.6l-1.276.356.378,1.265c1.424,4.811,4.242,11.322,9.562,15.028l.727.5Zm-.7-2.679c-3.9-3.086-6.181-8.046-7.446-11.864a37.52,37.52,0,0,0,7.345-3.112,37.861,37.861,0,0,0,7.479,3.157C570.525,452.027,568.3,456.995,564.352,460.011Z" transform="translate(-130.447 -132.111)"/>
      <rect id="Rectangle_333" data-name="Rectangle 333" class="cls-2" width="11.201" height="2.589" transform="translate(412.418 345.402)"/>
      <rect id="Rectangle_334" data-name="Rectangle 334" class="cls-2" width="11.203" height="2.586" transform="translate(408.529 284.099)"/>
      <rect id="Rectangle_335" data-name="Rectangle 335" class="cls-2" width="2.591" height="2.586" transform="translate(420.863 284.099)"/>
      <rect id="Rectangle_336" data-name="Rectangle 336" class="cls-2" width="2.591" height="2.586" transform="translate(424.144 284.099)"/>
    </g>
  </g>
</svg>
